<?xml version="1.0" encoding="utf-8" standalone="no"?>
<!DOCTYPE svg PUBLIC "-//W3C//DTD SVG 1.1//EN"
  "http://www.w3.org/Graphics/SVG/1.1/DTD/svg11.dtd">
<!-- Created with matplotlib (https://matplotlib.org/) -->
<svg height="288pt" version="1.1" viewBox="0 0 432 288" width="432pt" xmlns="http://www.w3.org/2000/svg" xmlns:xlink="http://www.w3.org/1999/xlink">
 <defs>
  <style type="text/css">
*{stroke-linecap:butt;stroke-linejoin:round;}
  </style>
 </defs>
 <g id="figure_1">
  <g id="patch_1">
   <path d="M 0 288 
L 432 288 
L 432 0 
L 0 0 
z
" style="fill:#ffffff;"/>
  </g>
  <g id="axes_1">
   <g id="patch_2">
    <path d="M 54 252 
L 388.8 252 
L 388.8 34.56 
L 54 34.56 
z
" style="fill:#ffffff;"/>
   </g>
   <g id="PolyCollection_1">
    <path clip-path="url(#pa68664964c)" d="M 69.218182 47.639098 
L 69.218182 252 
L 73.070886 252 
L 76.92359 252 
L 80.776295 252 
L 84.628999 252 
L 88.481703 252 
L 92.334407 252 
L 96.187112 252 
L 100.039816 252 
L 103.89252 252 
L 107.745224 252 
L 111.597929 252 
L 115.450633 252 
L 119.303337 252 
L 123.156041 252 
L 127.008746 252 
L 130.86145 252 
L 134.714154 252 
L 138.566858 252 
L 142.419563 252 
L 146.272267 252 
L 150.124971 252 
L 153.977675 252 
L 157.83038 252 
L 161.683084 252 
L 165.535788 252 
L 169.388493 252 
L 173.241197 252 
L 177.093901 252 
L 180.946605 252 
L 184.79931 252 
L 188.652014 252 
L 192.504718 252 
L 196.357422 252 
L 200.210127 252 
L 204.062831 252 
L 207.915535 252 
L 211.768239 252 
L 215.620944 252 
L 219.473648 252 
L 223.326352 252 
L 227.179056 252 
L 231.031761 252 
L 234.884465 252 
L 238.737169 252 
L 242.589873 252 
L 246.442578 252 
L 250.295282 252 
L 254.147986 252 
L 258.00069 252 
L 261.853395 252 
L 265.706099 252 
L 269.558803 252 
L 273.411507 252 
L 277.264212 252 
L 281.116916 252 
L 284.96962 252 
L 288.822325 252 
L 292.675029 252 
L 296.527733 252 
L 300.380437 252 
L 304.233142 252 
L 308.085846 252 
L 311.93855 252 
L 315.791254 252 
L 319.643959 252 
L 323.496663 252 
L 327.349367 252 
L 331.202071 252 
L 335.054776 252 
L 338.90748 252 
L 342.760184 252 
L 346.612888 252 
L 350.465593 252 
L 354.318297 252 
L 358.171001 252 
L 362.023705 252 
L 365.87641 252 
L 369.729114 252 
L 373.581818 252 
L 373.581818 212.490226 
L 373.581818 212.490226 
L 369.729114 217.93985 
L 365.87641 208.403008 
L 362.023705 205.678195 
L 358.171001 207.040602 
L 354.318297 228.839098 
L 350.465593 228.839098 
L 346.612888 222.027068 
L 342.760184 226.114286 
L 338.90748 226.114286 
L 335.054776 219.302256 
L 331.202071 213.852632 
L 327.349367 217.93985 
L 323.496663 226.114286 
L 319.643959 227.476692 
L 315.791254 231.56391 
L 311.93855 230.201504 
L 308.085846 230.201504 
L 304.233142 230.201504 
L 300.380437 222.027068 
L 296.527733 219.302256 
L 292.675029 228.839098 
L 288.822325 224.75188 
L 284.96962 220.664662 
L 281.116916 222.027068 
L 277.264212 217.93985 
L 273.411507 224.75188 
L 269.558803 222.027068 
L 265.706099 223.389474 
L 261.853395 215.215038 
L 258.00069 219.302256 
L 254.147986 217.93985 
L 250.295282 223.389474 
L 246.442578 212.490226 
L 242.589873 227.476692 
L 238.737169 219.302256 
L 234.884465 217.93985 
L 231.031761 211.12782 
L 227.179056 213.852632 
L 223.326352 211.12782 
L 219.473648 201.590977 
L 215.620944 226.114286 
L 211.768239 186.604511 
L 207.915535 174.342857 
L 204.062831 171.618045 
L 200.210127 179.792481 
L 196.357422 162.081203 
L 192.504718 148.457143 
L 188.652014 147.094737 
L 184.79931 151.181955 
L 180.946605 153.906767 
L 177.093901 162.081203 
L 173.241197 166.168421 
L 169.388493 153.906767 
L 165.535788 155.269173 
L 161.683084 178.430075 
L 157.83038 194.778947 
L 153.977675 215.215038 
L 150.124971 119.846617 
L 146.272267 143.007519 
L 142.419563 151.181955 
L 138.566858 159.356391 
L 134.714154 152.544361 
L 130.86145 155.269173 
L 127.008746 143.007519 
L 123.156041 134.833083 
L 119.303337 155.269173 
L 115.450633 132.108271 
L 111.597929 110.309774 
L 107.745224 47.639098 
L 103.89252 47.639098 
L 100.039816 47.639098 
L 96.187112 47.639098 
L 92.334407 47.639098 
L 88.481703 47.639098 
L 84.628999 47.639098 
L 80.776295 47.639098 
L 76.92359 47.639098 
L 73.070886 47.639098 
L 69.218182 47.639098 
z
" style="fill:#1f77b4;"/>
   </g>
   <g id="PolyCollection_2">
    <path clip-path="url(#pa68664964c)" d="M 69.218182 47.639098 
L 69.218182 47.639098 
L 73.070886 47.639098 
L 76.92359 47.639098 
L 80.776295 47.639098 
L 84.628999 47.639098 
L 88.481703 47.639098 
L 92.334407 47.639098 
L 96.187112 47.639098 
L 100.039816 47.639098 
L 103.89252 47.639098 
L 107.745224 47.639098 
L 111.597929 110.309774 
L 115.450633 132.108271 
L 119.303337 155.269173 
L 123.156041 134.833083 
L 127.008746 143.007519 
L 130.86145 155.269173 
L 134.714154 152.544361 
L 138.566858 159.356391 
L 142.419563 151.181955 
L 146.272267 143.007519 
L 150.124971 119.846617 
L 153.977675 215.215038 
L 157.83038 194.778947 
L 161.683084 178.430075 
L 165.535788 155.269173 
L 169.388493 153.906767 
L 173.241197 166.168421 
L 177.093901 162.081203 
L 180.946605 153.906767 
L 184.79931 151.181955 
L 188.652014 147.094737 
L 192.504718 148.457143 
L 196.357422 162.081203 
L 200.210127 179.792481 
L 204.062831 171.618045 
L 207.915535 174.342857 
L 211.768239 186.604511 
L 215.620944 226.114286 
L 219.473648 201.590977 
L 223.326352 211.12782 
L 227.179056 213.852632 
L 231.031761 211.12782 
L 234.884465 217.93985 
L 238.737169 219.302256 
L 242.589873 227.476692 
L 246.442578 212.490226 
L 250.295282 223.389474 
L 254.147986 217.93985 
L 258.00069 219.302256 
L 261.853395 215.215038 
L 265.706099 223.389474 
L 269.558803 222.027068 
L 273.411507 224.75188 
L 277.264212 217.93985 
L 281.116916 222.027068 
L 284.96962 220.664662 
L 288.822325 224.75188 
L 292.675029 228.839098 
L 296.527733 219.302256 
L 300.380437 222.027068 
L 304.233142 230.201504 
L 308.085846 230.201504 
L 311.93855 230.201504 
L 315.791254 231.56391 
L 319.643959 227.476692 
L 323.496663 226.114286 
L 327.349367 217.93985 
L 331.202071 213.852632 
L 335.054776 219.302256 
L 338.90748 226.114286 
L 342.760184 226.114286 
L 346.612888 222.027068 
L 350.465593 228.839098 
L 354.318297 228.839098 
L 358.171001 207.040602 
L 362.023705 205.678195 
L 365.87641 208.403008 
L 369.729114 217.93985 
L 373.581818 212.490226 
L 373.581818 212.490226 
L 373.581818 212.490226 
L 369.729114 217.93985 
L 365.87641 208.403008 
L 362.023705 205.678195 
L 358.171001 207.040602 
L 354.318297 228.839098 
L 350.465593 228.839098 
L 346.612888 222.027068 
L 342.760184 226.114286 
L 338.90748 226.114286 
L 335.054776 219.302256 
L 331.202071 213.852632 
L 327.349367 217.93985 
L 323.496663 226.114286 
L 319.643959 227.476692 
L 315.791254 231.56391 
L 311.93855 230.201504 
L 308.085846 230.201504 
L 304.233142 230.201504 
L 300.380437 222.027068 
L 296.527733 219.302256 
L 292.675029 228.839098 
L 288.822325 224.75188 
L 284.96962 220.664662 
L 281.116916 222.027068 
L 277.264212 217.93985 
L 273.411507 200.228571 
L 269.558803 197.503759 
L 265.706099 190.691729 
L 261.853395 189.329323 
L 258.00069 202.953383 
L 254.147986 196.141353 
L 250.295282 200.228571 
L 246.442578 186.604511 
L 242.589873 207.040602 
L 238.737169 202.953383 
L 234.884465 198.866165 
L 231.031761 193.416541 
L 227.179056 190.691729 
L 223.326352 198.866165 
L 219.473648 178.430075 
L 215.620944 201.590977 
L 211.768239 140.282707 
L 207.915535 129.383459 
L 204.062831 110.309774 
L 200.210127 117.121805 
L 196.357422 66.712782 
L 192.504718 47.639098 
L 188.652014 47.639098 
L 184.79931 47.639098 
L 180.946605 47.639098 
L 177.093901 47.639098 
L 173.241197 47.639098 
L 169.388493 47.639098 
L 165.535788 47.639098 
L 161.683084 47.639098 
L 157.83038 47.639098 
L 153.977675 47.639098 
L 150.124971 47.639098 
L 146.272267 47.639098 
L 142.419563 47.639098 
L 138.566858 47.639098 
L 134.714154 47.639098 
L 130.86145 47.639098 
L 127.008746 47.639098 
L 123.156041 47.639098 
L 119.303337 47.639098 
L 115.450633 47.639098 
L 111.597929 47.639098 
L 107.745224 47.639098 
L 103.89252 47.639098 
L 100.039816 47.639098 
L 96.187112 47.639098 
L 92.334407 47.639098 
L 88.481703 47.639098 
L 84.628999 47.639098 
L 80.776295 47.639098 
L 76.92359 47.639098 
L 73.070886 47.639098 
L 69.218182 47.639098 
z
" style="fill:#ff7f0e;"/>
   </g>
   <g id="PolyCollection_3">
    <path clip-path="url(#pa68664964c)" d="M 69.218182 47.639098 
L 69.218182 47.639098 
L 73.070886 47.639098 
L 76.92359 47.639098 
L 80.776295 47.639098 
L 84.628999 47.639098 
L 88.481703 47.639098 
L 92.334407 47.639098 
L 96.187112 47.639098 
L 100.039816 47.639098 
L 103.89252 47.639098 
L 107.745224 47.639098 
L 111.597929 47.639098 
L 115.450633 47.639098 
L 119.303337 47.639098 
L 123.156041 47.639098 
L 127.008746 47.639098 
L 130.86145 47.639098 
L 134.714154 47.639098 
L 138.566858 47.639098 
L 142.419563 47.639098 
L 146.272267 47.639098 
L 150.124971 47.639098 
L 153.977675 47.639098 
L 157.83038 47.639098 
L 161.683084 47.639098 
L 165.535788 47.639098 
L 169.388493 47.639098 
L 173.241197 47.639098 
L 177.093901 47.639098 
L 180.946605 47.639098 
L 184.79931 47.639098 
L 188.652014 47.639098 
L 192.504718 47.639098 
L 196.357422 66.712782 
L 200.210127 117.121805 
L 204.062831 110.309774 
L 207.915535 129.383459 
L 211.768239 140.282707 
L 215.620944 201.590977 
L 219.473648 178.430075 
L 223.326352 198.866165 
L 227.179056 190.691729 
L 231.031761 193.416541 
L 234.884465 198.866165 
L 238.737169 202.953383 
L 242.589873 207.040602 
L 246.442578 186.604511 
L 250.295282 200.228571 
L 254.147986 196.141353 
L 258.00069 202.953383 
L 261.853395 189.329323 
L 265.706099 190.691729 
L 269.558803 197.503759 
L 273.411507 200.228571 
L 277.264212 217.93985 
L 281.116916 222.027068 
L 284.96962 220.664662 
L 288.822325 224.75188 
L 292.675029 228.839098 
L 296.527733 219.302256 
L 300.380437 222.027068 
L 304.233142 230.201504 
L 308.085846 230.201504 
L 311.93855 230.201504 
L 315.791254 231.56391 
L 319.643959 227.476692 
L 323.496663 226.114286 
L 327.349367 217.93985 
L 331.202071 213.852632 
L 335.054776 219.302256 
L 338.90748 226.114286 
L 342.760184 226.114286 
L 346.612888 222.027068 
L 350.465593 228.839098 
L 354.318297 228.839098 
L 358.171001 207.040602 
L 362.023705 205.678195 
L 365.87641 208.403008 
L 369.729114 217.93985 
L 373.581818 212.490226 
L 373.581818 212.490226 
L 373.581818 212.490226 
L 369.729114 217.93985 
L 365.87641 208.403008 
L 362.023705 205.678195 
L 358.171001 207.040602 
L 354.318297 228.839098 
L 350.465593 228.839098 
L 346.612888 222.027068 
L 342.760184 226.114286 
L 338.90748 226.114286 
L 335.054776 219.302256 
L 331.202071 213.852632 
L 327.349367 217.93985 
L 323.496663 226.114286 
L 319.643959 227.476692 
L 315.791254 231.56391 
L 311.93855 230.201504 
L 308.085846 230.201504 
L 304.233142 230.201504 
L 300.380437 222.027068 
L 296.527733 219.302256 
L 292.675029 215.215038 
L 288.822325 200.228571 
L 284.96962 192.054135 
L 281.116916 200.228571 
L 277.264212 185.242105 
L 273.411507 175.705263 
L 269.558803 182.517293 
L 265.706099 168.893233 
L 261.853395 168.893233 
L 258.00069 174.342857 
L 254.147986 171.618045 
L 250.295282 170.255639 
L 246.442578 163.443609 
L 242.589873 182.517293 
L 238.737169 187.966917 
L 234.884465 160.718797 
L 231.031761 156.631579 
L 227.179056 149.819549 
L 223.326352 156.631579 
L 219.473648 147.094737 
L 215.620944 175.705263 
L 211.768239 113.034586 
L 207.915535 91.23609 
L 204.062831 83.061654 
L 200.210127 76.249624 
L 196.357422 58.538346 
L 192.504718 47.639098 
L 188.652014 47.639098 
L 184.79931 47.639098 
L 180.946605 47.639098 
L 177.093901 47.639098 
L 173.241197 47.639098 
L 169.388493 47.639098 
L 165.535788 47.639098 
L 161.683084 47.639098 
L 157.83038 47.639098 
L 153.977675 47.639098 
L 150.124971 47.639098 
L 146.272267 47.639098 
L 142.419563 47.639098 
L 138.566858 47.639098 
L 134.714154 47.639098 
L 130.86145 47.639098 
L 127.008746 47.639098 
L 123.156041 47.639098 
L 119.303337 47.639098 
L 115.450633 47.639098 
L 111.597929 47.639098 
L 107.745224 47.639098 
L 103.89252 47.639098 
L 100.039816 47.639098 
L 96.187112 47.639098 
L 92.334407 47.639098 
L 88.481703 47.639098 
L 84.628999 47.639098 
L 80.776295 47.639098 
L 76.92359 47.639098 
L 73.070886 47.639098 
L 69.218182 47.639098 
z
" style="fill:#2ca02c;"/>
   </g>
   <g id="PolyCollection_4">
    <path clip-path="url(#pa68664964c)" d="M 69.218182 47.639098 
L 69.218182 47.639098 
L 73.070886 47.639098 
L 76.92359 47.639098 
L 80.776295 47.639098 
L 84.628999 47.639098 
L 88.481703 47.639098 
L 92.334407 47.639098 
L 96.187112 47.639098 
L 100.039816 47.639098 
L 103.89252 47.639098 
L 107.745224 47.639098 
L 111.597929 47.639098 
L 115.450633 47.639098 
L 119.303337 47.639098 
L 123.156041 47.639098 
L 127.008746 47.639098 
L 130.86145 47.639098 
L 134.714154 47.639098 
L 138.566858 47.639098 
L 142.419563 47.639098 
L 146.272267 47.639098 
L 150.124971 47.639098 
L 153.977675 47.639098 
L 157.83038 47.639098 
L 161.683084 47.639098 
L 165.535788 47.639098 
L 169.388493 47.639098 
L 173.241197 47.639098 
L 177.093901 47.639098 
L 180.946605 47.639098 
L 184.79931 47.639098 
L 188.652014 47.639098 
L 192.504718 47.639098 
L 196.357422 58.538346 
L 200.210127 76.249624 
L 204.062831 83.061654 
L 207.915535 91.23609 
L 211.768239 113.034586 
L 215.620944 175.705263 
L 219.473648 147.094737 
L 223.326352 156.631579 
L 227.179056 149.819549 
L 231.031761 156.631579 
L 234.884465 160.718797 
L 238.737169 187.966917 
L 242.589873 182.517293 
L 246.442578 163.443609 
L 250.295282 170.255639 
L 254.147986 171.618045 
L 258.00069 174.342857 
L 261.853395 168.893233 
L 265.706099 168.893233 
L 269.558803 182.517293 
L 273.411507 175.705263 
L 277.264212 185.242105 
L 281.116916 200.228571 
L 284.96962 192.054135 
L 288.822325 200.228571 
L 292.675029 215.215038 
L 296.527733 219.302256 
L 300.380437 222.027068 
L 304.233142 230.201504 
L 308.085846 230.201504 
L 311.93855 230.201504 
L 315.791254 231.56391 
L 319.643959 227.476692 
L 323.496663 226.114286 
L 327.349367 217.93985 
L 331.202071 213.852632 
L 335.054776 219.302256 
L 338.90748 226.114286 
L 342.760184 226.114286 
L 346.612888 222.027068 
L 350.465593 228.839098 
L 354.318297 228.839098 
L 358.171001 207.040602 
L 362.023705 205.678195 
L 365.87641 208.403008 
L 369.729114 217.93985 
L 373.581818 212.490226 
L 373.581818 212.490226 
L 373.581818 212.490226 
L 369.729114 217.93985 
L 365.87641 208.403008 
L 362.023705 205.678195 
L 358.171001 207.040602 
L 354.318297 228.839098 
L 350.465593 228.839098 
L 346.612888 222.027068 
L 342.760184 226.114286 
L 338.90748 226.114286 
L 335.054776 219.302256 
L 331.202071 213.852632 
L 327.349367 202.953383 
L 323.496663 207.040602 
L 319.643959 207.040602 
L 315.791254 212.490226 
L 311.93855 211.12782 
L 308.085846 211.12782 
L 304.233142 212.490226 
L 300.380437 204.315789 
L 296.527733 198.866165 
L 292.675029 193.416541 
L 288.822325 181.154887 
L 284.96962 170.255639 
L 281.116916 178.430075 
L 277.264212 163.443609 
L 273.411507 166.168421 
L 269.558803 167.530827 
L 265.706099 149.819549 
L 261.853395 152.544361 
L 258.00069 162.081203 
L 254.147986 155.269173 
L 250.295282 149.819549 
L 246.442578 145.732331 
L 242.589873 164.806015 
L 238.737169 167.530827 
L 234.884465 138.920301 
L 231.031761 136.195489 
L 227.179056 133.470677 
L 223.326352 133.470677 
L 219.473648 128.021053 
L 215.620944 149.819549 
L 211.768239 73.524812 
L 207.915535 49.001504 
L 204.062831 47.639098 
L 200.210127 47.639098 
L 196.357422 47.639098 
L 192.504718 47.639098 
L 188.652014 47.639098 
L 184.79931 47.639098 
L 180.946605 47.639098 
L 177.093901 47.639098 
L 173.241197 47.639098 
L 169.388493 47.639098 
L 165.535788 47.639098 
L 161.683084 47.639098 
L 157.83038 47.639098 
L 153.977675 47.639098 
L 150.124971 47.639098 
L 146.272267 47.639098 
L 142.419563 47.639098 
L 138.566858 47.639098 
L 134.714154 47.639098 
L 130.86145 47.639098 
L 127.008746 47.639098 
L 123.156041 47.639098 
L 119.303337 47.639098 
L 115.450633 47.639098 
L 111.597929 47.639098 
L 107.745224 47.639098 
L 103.89252 47.639098 
L 100.039816 47.639098 
L 96.187112 47.639098 
L 92.334407 47.639098 
L 88.481703 47.639098 
L 84.628999 47.639098 
L 80.776295 47.639098 
L 76.92359 47.639098 
L 73.070886 47.639098 
L 69.218182 47.639098 
z
" style="fill:#d62728;"/>
   </g>
   <g id="PolyCollection_5">
    <path clip-path="url(#pa68664964c)" d="M 69.218182 47.639098 
L 69.218182 47.639098 
L 73.070886 47.639098 
L 76.92359 47.639098 
L 80.776295 47.639098 
L 84.628999 47.639098 
L 88.481703 47.639098 
L 92.334407 47.639098 
L 96.187112 47.639098 
L 100.039816 47.639098 
L 103.89252 47.639098 
L 107.745224 47.639098 
L 111.597929 47.639098 
L 115.450633 47.639098 
L 119.303337 47.639098 
L 123.156041 47.639098 
L 127.008746 47.639098 
L 130.86145 47.639098 
L 134.714154 47.639098 
L 138.566858 47.639098 
L 142.419563 47.639098 
L 146.272267 47.639098 
L 150.124971 47.639098 
L 153.977675 47.639098 
L 157.83038 47.639098 
L 161.683084 47.639098 
L 165.535788 47.639098 
L 169.388493 47.639098 
L 173.241197 47.639098 
L 177.093901 47.639098 
L 180.946605 47.639098 
L 184.79931 47.639098 
L 188.652014 47.639098 
L 192.504718 47.639098 
L 196.357422 47.639098 
L 200.210127 47.639098 
L 204.062831 47.639098 
L 207.915535 49.001504 
L 211.768239 73.524812 
L 215.620944 149.819549 
L 219.473648 128.021053 
L 223.326352 133.470677 
L 227.179056 133.470677 
L 231.031761 136.195489 
L 234.884465 138.920301 
L 238.737169 167.530827 
L 242.589873 164.806015 
L 246.442578 145.732331 
L 250.295282 149.819549 
L 254.147986 155.269173 
L 258.00069 162.081203 
L 261.853395 152.544361 
L 265.706099 149.819549 
L 269.558803 167.530827 
L 273.411507 166.168421 
L 277.264212 163.443609 
L 281.116916 178.430075 
L 284.96962 170.255639 
L 288.822325 181.154887 
L 292.675029 193.416541 
L 296.527733 198.866165 
L 300.380437 204.315789 
L 304.233142 212.490226 
L 308.085846 211.12782 
L 311.93855 211.12782 
L 315.791254 212.490226 
L 319.643959 207.040602 
L 323.496663 207.040602 
L 327.349367 202.953383 
L 331.202071 213.852632 
L 335.054776 219.302256 
L 338.90748 226.114286 
L 342.760184 226.114286 
L 346.612888 222.027068 
L 350.465593 228.839098 
L 354.318297 228.839098 
L 358.171001 207.040602 
L 362.023705 205.678195 
L 365.87641 208.403008 
L 369.729114 217.93985 
L 373.581818 212.490226 
L 373.581818 171.618045 
L 373.581818 171.618045 
L 369.729114 186.604511 
L 365.87641 175.705263 
L 362.023705 181.154887 
L 358.171001 177.067669 
L 354.318297 174.342857 
L 350.465593 174.342857 
L 346.612888 166.168421 
L 342.760184 170.255639 
L 338.90748 163.443609 
L 335.054776 167.530827 
L 331.202071 155.269173 
L 327.349367 144.369925 
L 323.496663 148.457143 
L 319.643959 137.557895 
L 315.791254 130.745865 
L 311.93855 140.282707 
L 308.085846 137.557895 
L 304.233142 138.920301 
L 300.380437 144.369925 
L 296.527733 133.470677 
L 292.675029 132.108271 
L 288.822325 118.484211 
L 284.96962 102.135338 
L 281.116916 117.121805 
L 277.264212 110.309774 
L 273.411507 111.67218 
L 269.558803 104.86015 
L 265.706099 88.511278 
L 261.853395 88.511278 
L 258.00069 93.960902 
L 254.147986 96.685714 
L 250.295282 84.42406 
L 246.442578 91.23609 
L 242.589873 93.960902 
L 238.737169 96.685714 
L 234.884465 65.350376 
L 231.031761 68.075188 
L 227.179056 53.088722 
L 223.326352 63.98797 
L 219.473648 51.726316 
L 215.620944 49.001504 
L 211.768239 47.639098 
L 207.915535 46.276692 
L 204.062831 47.639098 
L 200.210127 47.639098 
L 196.357422 47.639098 
L 192.504718 47.639098 
L 188.652014 47.639098 
L 184.79931 47.639098 
L 180.946605 47.639098 
L 177.093901 47.639098 
L 173.241197 47.639098 
L 169.388493 47.639098 
L 165.535788 47.639098 
L 161.683084 47.639098 
L 157.83038 47.639098 
L 153.977675 47.639098 
L 150.124971 47.639098 
L 146.272267 47.639098 
L 142.419563 47.639098 
L 138.566858 47.639098 
L 134.714154 47.639098 
L 130.86145 47.639098 
L 127.008746 47.639098 
L 123.156041 47.639098 
L 119.303337 47.639098 
L 115.450633 47.639098 
L 111.597929 47.639098 
L 107.745224 47.639098 
L 103.89252 47.639098 
L 100.039816 47.639098 
L 96.187112 47.639098 
L 92.334407 47.639098 
L 88.481703 47.639098 
L 84.628999 47.639098 
L 80.776295 47.639098 
L 76.92359 47.639098 
L 73.070886 47.639098 
L 69.218182 47.639098 
z
" style="fill:#9467bd;"/>
   </g>
   <g id="PolyCollection_6">
    <path clip-path="url(#pa68664964c)" d="M 69.218182 47.639098 
L 69.218182 47.639098 
L 73.070886 47.639098 
L 76.92359 47.639098 
L 80.776295 47.639098 
L 84.628999 47.639098 
L 88.481703 47.639098 
L 92.334407 47.639098 
L 96.187112 47.639098 
L 100.039816 47.639098 
L 103.89252 47.639098 
L 107.745224 47.639098 
L 111.597929 47.639098 
L 115.450633 47.639098 
L 119.303337 47.639098 
L 123.156041 47.639098 
L 127.008746 47.639098 
L 130.86145 47.639098 
L 134.714154 47.639098 
L 138.566858 47.639098 
L 142.419563 47.639098 
L 146.272267 47.639098 
L 150.124971 47.639098 
L 153.977675 47.639098 
L 157.83038 47.639098 
L 161.683084 47.639098 
L 165.535788 47.639098 
L 169.388493 47.639098 
L 173.241197 47.639098 
L 177.093901 47.639098 
L 180.946605 47.639098 
L 184.79931 47.639098 
L 188.652014 47.639098 
L 192.504718 47.639098 
L 196.357422 47.639098 
L 200.210127 47.639098 
L 204.062831 47.639098 
L 207.915535 46.276692 
L 211.768239 47.639098 
L 215.620944 49.001504 
L 219.473648 51.726316 
L 223.326352 63.98797 
L 227.179056 53.088722 
L 231.031761 68.075188 
L 234.884465 65.350376 
L 238.737169 96.685714 
L 242.589873 93.960902 
L 246.442578 91.23609 
L 250.295282 84.42406 
L 254.147986 96.685714 
L 258.00069 93.960902 
L 261.853395 88.511278 
L 265.706099 88.511278 
L 269.558803 104.86015 
L 273.411507 111.67218 
L 277.264212 110.309774 
L 281.116916 117.121805 
L 284.96962 102.135338 
L 288.822325 118.484211 
L 292.675029 132.108271 
L 296.527733 133.470677 
L 300.380437 144.369925 
L 304.233142 138.920301 
L 308.085846 137.557895 
L 311.93855 140.282707 
L 315.791254 130.745865 
L 319.643959 137.557895 
L 323.496663 148.457143 
L 327.349367 144.369925 
L 331.202071 155.269173 
L 335.054776 167.530827 
L 338.90748 163.443609 
L 342.760184 170.255639 
L 346.612888 166.168421 
L 350.465593 174.342857 
L 354.318297 174.342857 
L 358.171001 177.067669 
L 362.023705 181.154887 
L 365.87641 175.705263 
L 369.729114 186.604511 
L 373.581818 171.618045 
L 373.581818 171.618045 
L 373.581818 171.618045 
L 369.729114 186.604511 
L 365.87641 175.705263 
L 362.023705 181.154887 
L 358.171001 177.067669 
L 354.318297 174.342857 
L 350.465593 174.342857 
L 346.612888 166.168421 
L 342.760184 170.255639 
L 338.90748 163.443609 
L 335.054776 167.530827 
L 331.202071 155.269173 
L 327.349367 144.369925 
L 323.496663 148.457143 
L 319.643959 137.557895 
L 315.791254 115.759398 
L 311.93855 118.484211 
L 308.085846 122.571429 
L 304.233142 125.296241 
L 300.380437 132.108271 
L 296.527733 125.296241 
L 292.675029 113.034586 
L 288.822325 95.323308 
L 284.96962 83.061654 
L 281.116916 87.148872 
L 277.264212 81.699248 
L 273.411507 85.786466 
L 269.558803 81.699248 
L 265.706099 65.350376 
L 261.853395 61.263158 
L 258.00069 66.712782 
L 254.147986 63.98797 
L 250.295282 57.17594 
L 246.442578 61.263158 
L 242.589873 57.17594 
L 238.737169 50.36391 
L 234.884465 46.276692 
L 231.031761 47.639098 
L 227.179056 47.639098 
L 223.326352 49.001504 
L 219.473648 47.639098 
L 215.620944 49.001504 
L 211.768239 47.639098 
L 207.915535 46.276692 
L 204.062831 47.639098 
L 200.210127 47.639098 
L 196.357422 47.639098 
L 192.504718 47.639098 
L 188.652014 47.639098 
L 184.79931 47.639098 
L 180.946605 47.639098 
L 177.093901 47.639098 
L 173.241197 47.639098 
L 169.388493 47.639098 
L 165.535788 47.639098 
L 161.683084 47.639098 
L 157.83038 47.639098 
L 153.977675 47.639098 
L 150.124971 47.639098 
L 146.272267 47.639098 
L 142.419563 47.639098 
L 138.566858 47.639098 
L 134.714154 47.639098 
L 130.86145 47.639098 
L 127.008746 47.639098 
L 123.156041 47.639098 
L 119.303337 47.639098 
L 115.450633 47.639098 
L 111.597929 47.639098 
L 107.745224 47.639098 
L 103.89252 47.639098 
L 100.039816 47.639098 
L 96.187112 47.639098 
L 92.334407 47.639098 
L 88.481703 47.639098 
L 84.628999 47.639098 
L 80.776295 47.639098 
L 76.92359 47.639098 
L 73.070886 47.639098 
L 69.218182 47.639098 
z
" style="fill:#8c564b;"/>
   </g>
   <g id="PolyCollection_7">
    <path clip-path="url(#pa68664964c)" d="M 69.218182 47.639098 
L 69.218182 47.639098 
L 73.070886 47.639098 
L 76.92359 47.639098 
L 80.776295 47.639098 
L 84.628999 47.639098 
L 88.481703 47.639098 
L 92.334407 47.639098 
L 96.187112 47.639098 
L 100.039816 47.639098 
L 103.89252 47.639098 
L 107.745224 47.639098 
L 111.597929 47.639098 
L 115.450633 47.639098 
L 119.303337 47.639098 
L 123.156041 47.639098 
L 127.008746 47.639098 
L 130.86145 47.639098 
L 134.714154 47.639098 
L 138.566858 47.639098 
L 142.419563 47.639098 
L 146.272267 47.639098 
L 150.124971 47.639098 
L 153.977675 47.639098 
L 157.83038 47.639098 
L 161.683084 47.639098 
L 165.535788 47.639098 
L 169.388493 47.639098 
L 173.241197 47.639098 
L 177.093901 47.639098 
L 180.946605 47.639098 
L 184.79931 47.639098 
L 188.652014 47.639098 
L 192.504718 47.639098 
L 196.357422 47.639098 
L 200.210127 47.639098 
L 204.062831 47.639098 
L 207.915535 46.276692 
L 211.768239 47.639098 
L 215.620944 49.001504 
L 219.473648 47.639098 
L 223.326352 49.001504 
L 227.179056 47.639098 
L 231.031761 47.639098 
L 234.884465 46.276692 
L 238.737169 50.36391 
L 242.589873 57.17594 
L 246.442578 61.263158 
L 250.295282 57.17594 
L 254.147986 63.98797 
L 258.00069 66.712782 
L 261.853395 61.263158 
L 265.706099 65.350376 
L 269.558803 81.699248 
L 273.411507 85.786466 
L 277.264212 81.699248 
L 281.116916 87.148872 
L 284.96962 83.061654 
L 288.822325 95.323308 
L 292.675029 113.034586 
L 296.527733 125.296241 
L 300.380437 132.108271 
L 304.233142 125.296241 
L 308.085846 122.571429 
L 311.93855 118.484211 
L 315.791254 115.759398 
L 319.643959 137.557895 
L 323.496663 148.457143 
L 327.349367 144.369925 
L 331.202071 155.269173 
L 335.054776 167.530827 
L 338.90748 163.443609 
L 342.760184 170.255639 
L 346.612888 166.168421 
L 350.465593 174.342857 
L 354.318297 174.342857 
L 358.171001 177.067669 
L 362.023705 181.154887 
L 365.87641 175.705263 
L 369.729114 186.604511 
L 373.581818 171.618045 
L 373.581818 155.269173 
L 373.581818 155.269173 
L 369.729114 168.893233 
L 365.87641 162.081203 
L 362.023705 147.094737 
L 358.171001 149.819549 
L 354.318297 141.645113 
L 350.465593 148.457143 
L 346.612888 137.557895 
L 342.760184 144.369925 
L 338.90748 144.369925 
L 335.054776 134.833083 
L 331.202071 123.933835 
L 327.349367 117.121805 
L 323.496663 140.282707 
L 319.643959 132.108271 
L 315.791254 93.960902 
L 311.93855 100.772932 
L 308.085846 100.772932 
L 304.233142 110.309774 
L 300.380437 121.209023 
L 296.527733 74.887218 
L 292.675029 88.511278 
L 288.822325 73.524812 
L 284.96962 72.162406 
L 281.116916 59.900752 
L 277.264212 57.17594 
L 273.411507 59.900752 
L 269.558803 54.451128 
L 265.706099 49.001504 
L 261.853395 47.639098 
L 258.00069 50.36391 
L 254.147986 46.276692 
L 250.295282 44.914286 
L 246.442578 46.276692 
L 242.589873 47.639098 
L 238.737169 47.639098 
L 234.884465 46.276692 
L 231.031761 47.639098 
L 227.179056 47.639098 
L 223.326352 49.001504 
L 219.473648 47.639098 
L 215.620944 49.001504 
L 211.768239 47.639098 
L 207.915535 46.276692 
L 204.062831 47.639098 
L 200.210127 47.639098 
L 196.357422 47.639098 
L 192.504718 47.639098 
L 188.652014 47.639098 
L 184.79931 47.639098 
L 180.946605 47.639098 
L 177.093901 47.639098 
L 173.241197 47.639098 
L 169.388493 47.639098 
L 165.535788 47.639098 
L 161.683084 47.639098 
L 157.83038 47.639098 
L 153.977675 47.639098 
L 150.124971 47.639098 
L 146.272267 47.639098 
L 142.419563 47.639098 
L 138.566858 47.639098 
L 134.714154 47.639098 
L 130.86145 47.639098 
L 127.008746 47.639098 
L 123.156041 47.639098 
L 119.303337 47.639098 
L 115.450633 47.639098 
L 111.597929 47.639098 
L 107.745224 47.639098 
L 103.89252 47.639098 
L 100.039816 47.639098 
L 96.187112 47.639098 
L 92.334407 47.639098 
L 88.481703 47.639098 
L 84.628999 47.639098 
L 80.776295 47.639098 
L 76.92359 47.639098 
L 73.070886 47.639098 
L 69.218182 47.639098 
z
" style="fill:#e377c2;"/>
   </g>
   <g id="PolyCollection_8">
    <path clip-path="url(#pa68664964c)" d="M 69.218182 47.639098 
L 69.218182 47.639098 
L 73.070886 47.639098 
L 76.92359 47.639098 
L 80.776295 47.639098 
L 84.628999 47.639098 
L 88.481703 47.639098 
L 92.334407 47.639098 
L 96.187112 47.639098 
L 100.039816 47.639098 
L 103.89252 47.639098 
L 107.745224 47.639098 
L 111.597929 47.639098 
L 115.450633 47.639098 
L 119.303337 47.639098 
L 123.156041 47.639098 
L 127.008746 47.639098 
L 130.86145 47.639098 
L 134.714154 47.639098 
L 138.566858 47.639098 
L 142.419563 47.639098 
L 146.272267 47.639098 
L 150.124971 47.639098 
L 153.977675 47.639098 
L 157.83038 47.639098 
L 161.683084 47.639098 
L 165.535788 47.639098 
L 169.388493 47.639098 
L 173.241197 47.639098 
L 177.093901 47.639098 
L 180.946605 47.639098 
L 184.79931 47.639098 
L 188.652014 47.639098 
L 192.504718 47.639098 
L 196.357422 47.639098 
L 200.210127 47.639098 
L 204.062831 47.639098 
L 207.915535 46.276692 
L 211.768239 47.639098 
L 215.620944 49.001504 
L 219.473648 47.639098 
L 223.326352 49.001504 
L 227.179056 47.639098 
L 231.031761 47.639098 
L 234.884465 46.276692 
L 238.737169 47.639098 
L 242.589873 47.639098 
L 246.442578 46.276692 
L 250.295282 44.914286 
L 254.147986 46.276692 
L 258.00069 50.36391 
L 261.853395 47.639098 
L 265.706099 49.001504 
L 269.558803 54.451128 
L 273.411507 59.900752 
L 277.264212 57.17594 
L 281.116916 59.900752 
L 284.96962 72.162406 
L 288.822325 73.524812 
L 292.675029 88.511278 
L 296.527733 74.887218 
L 300.380437 121.209023 
L 304.233142 110.309774 
L 308.085846 100.772932 
L 311.93855 100.772932 
L 315.791254 93.960902 
L 319.643959 132.108271 
L 323.496663 140.282707 
L 327.349367 117.121805 
L 331.202071 123.933835 
L 335.054776 134.833083 
L 338.90748 144.369925 
L 342.760184 144.369925 
L 346.612888 137.557895 
L 350.465593 148.457143 
L 354.318297 141.645113 
L 358.171001 149.819549 
L 362.023705 147.094737 
L 365.87641 162.081203 
L 369.729114 168.893233 
L 373.581818 155.269173 
L 373.581818 136.195489 
L 373.581818 136.195489 
L 369.729114 144.369925 
L 365.87641 138.920301 
L 362.023705 132.108271 
L 358.171001 128.021053 
L 354.318297 121.209023 
L 350.465593 122.571429 
L 346.612888 115.759398 
L 342.760184 121.209023 
L 338.90748 118.484211 
L 335.054776 106.222556 
L 331.202071 108.947368 
L 327.349367 98.04812 
L 323.496663 114.396992 
L 319.643959 110.309774 
L 315.791254 78.974436 
L 311.93855 83.061654 
L 308.085846 80.336842 
L 304.233142 87.148872 
L 300.380437 104.86015 
L 296.527733 63.98797 
L 292.675029 47.639098 
L 288.822325 47.639098 
L 284.96962 44.914286 
L 281.116916 46.276692 
L 277.264212 49.001504 
L 273.411507 47.639098 
L 269.558803 46.276692 
L 265.706099 49.001504 
L 261.853395 47.639098 
L 258.00069 50.36391 
L 254.147986 46.276692 
L 250.295282 44.914286 
L 246.442578 46.276692 
L 242.589873 47.639098 
L 238.737169 47.639098 
L 234.884465 46.276692 
L 231.031761 47.639098 
L 227.179056 47.639098 
L 223.326352 49.001504 
L 219.473648 47.639098 
L 215.620944 49.001504 
L 211.768239 47.639098 
L 207.915535 46.276692 
L 204.062831 47.639098 
L 200.210127 47.639098 
L 196.357422 47.639098 
L 192.504718 47.639098 
L 188.652014 47.639098 
L 184.79931 47.639098 
L 180.946605 47.639098 
L 177.093901 47.639098 
L 173.241197 47.639098 
L 169.388493 47.639098 
L 165.535788 47.639098 
L 161.683084 47.639098 
L 157.83038 47.639098 
L 153.977675 47.639098 
L 150.124971 47.639098 
L 146.272267 47.639098 
L 142.419563 47.639098 
L 138.566858 47.639098 
L 134.714154 47.639098 
L 130.86145 47.639098 
L 127.008746 47.639098 
L 123.156041 47.639098 
L 119.303337 47.639098 
L 115.450633 47.639098 
L 111.597929 47.639098 
L 107.745224 47.639098 
L 103.89252 47.639098 
L 100.039816 47.639098 
L 96.187112 47.639098 
L 92.334407 47.639098 
L 88.481703 47.639098 
L 84.628999 47.639098 
L 80.776295 47.639098 
L 76.92359 47.639098 
L 73.070886 47.639098 
L 69.218182 47.639098 
z
" style="fill:#7f7f7f;"/>
   </g>
   <g id="PolyCollection_9">
    <path clip-path="url(#pa68664964c)" d="M 69.218182 47.639098 
L 69.218182 47.639098 
L 73.070886 47.639098 
L 76.92359 47.639098 
L 80.776295 47.639098 
L 84.628999 47.639098 
L 88.481703 47.639098 
L 92.334407 47.639098 
L 96.187112 47.639098 
L 100.039816 47.639098 
L 103.89252 47.639098 
L 107.745224 47.639098 
L 111.597929 47.639098 
L 115.450633 47.639098 
L 119.303337 47.639098 
L 123.156041 47.639098 
L 127.008746 47.639098 
L 130.86145 47.639098 
L 134.714154 47.639098 
L 138.566858 47.639098 
L 142.419563 47.639098 
L 146.272267 47.639098 
L 150.124971 47.639098 
L 153.977675 47.639098 
L 157.83038 47.639098 
L 161.683084 47.639098 
L 165.535788 47.639098 
L 169.388493 47.639098 
L 173.241197 47.639098 
L 177.093901 47.639098 
L 180.946605 47.639098 
L 184.79931 47.639098 
L 188.652014 47.639098 
L 192.504718 47.639098 
L 196.357422 47.639098 
L 200.210127 47.639098 
L 204.062831 47.639098 
L 207.915535 46.276692 
L 211.768239 47.639098 
L 215.620944 49.001504 
L 219.473648 47.639098 
L 223.326352 49.001504 
L 227.179056 47.639098 
L 231.031761 47.639098 
L 234.884465 46.276692 
L 238.737169 47.639098 
L 242.589873 47.639098 
L 246.442578 46.276692 
L 250.295282 44.914286 
L 254.147986 46.276692 
L 258.00069 50.36391 
L 261.853395 47.639098 
L 265.706099 49.001504 
L 269.558803 46.276692 
L 273.411507 47.639098 
L 277.264212 49.001504 
L 281.116916 46.276692 
L 284.96962 44.914286 
L 288.822325 47.639098 
L 292.675029 47.639098 
L 296.527733 63.98797 
L 300.380437 104.86015 
L 304.233142 87.148872 
L 308.085846 80.336842 
L 311.93855 83.061654 
L 315.791254 78.974436 
L 319.643959 110.309774 
L 323.496663 114.396992 
L 327.349367 98.04812 
L 331.202071 108.947368 
L 335.054776 106.222556 
L 338.90748 118.484211 
L 342.760184 121.209023 
L 346.612888 115.759398 
L 350.465593 122.571429 
L 354.318297 121.209023 
L 358.171001 128.021053 
L 362.023705 132.108271 
L 365.87641 138.920301 
L 369.729114 144.369925 
L 373.581818 136.195489 
L 373.581818 108.947368 
L 373.581818 108.947368 
L 369.729114 121.209023 
L 365.87641 108.947368 
L 362.023705 108.947368 
L 358.171001 106.222556 
L 354.318297 95.323308 
L 350.465593 99.410526 
L 346.612888 93.960902 
L 342.760184 92.598496 
L 338.90748 88.511278 
L 335.054776 78.974436 
L 331.202071 83.061654 
L 327.349367 76.249624 
L 323.496663 87.148872 
L 319.643959 74.887218 
L 315.791254 47.639098 
L 311.93855 47.639098 
L 308.085846 49.001504 
L 304.233142 49.001504 
L 300.380437 49.001504 
L 296.527733 47.639098 
L 292.675029 47.639098 
L 288.822325 47.639098 
L 284.96962 44.914286 
L 281.116916 46.276692 
L 277.264212 49.001504 
L 273.411507 47.639098 
L 269.558803 46.276692 
L 265.706099 49.001504 
L 261.853395 47.639098 
L 258.00069 50.36391 
L 254.147986 46.276692 
L 250.295282 44.914286 
L 246.442578 46.276692 
L 242.589873 47.639098 
L 238.737169 47.639098 
L 234.884465 46.276692 
L 231.031761 47.639098 
L 227.179056 47.639098 
L 223.326352 49.001504 
L 219.473648 47.639098 
L 215.620944 49.001504 
L 211.768239 47.639098 
L 207.915535 46.276692 
L 204.062831 47.639098 
L 200.210127 47.639098 
L 196.357422 47.639098 
L 192.504718 47.639098 
L 188.652014 47.639098 
L 184.79931 47.639098 
L 180.946605 47.639098 
L 177.093901 47.639098 
L 173.241197 47.639098 
L 169.388493 47.639098 
L 165.535788 47.639098 
L 161.683084 47.639098 
L 157.83038 47.639098 
L 153.977675 47.639098 
L 150.124971 47.639098 
L 146.272267 47.639098 
L 142.419563 47.639098 
L 138.566858 47.639098 
L 134.714154 47.639098 
L 130.86145 47.639098 
L 127.008746 47.639098 
L 123.156041 47.639098 
L 119.303337 47.639098 
L 115.450633 47.639098 
L 111.597929 47.639098 
L 107.745224 47.639098 
L 103.89252 47.639098 
L 100.039816 47.639098 
L 96.187112 47.639098 
L 92.334407 47.639098 
L 88.481703 47.639098 
L 84.628999 47.639098 
L 80.776295 47.639098 
L 76.92359 47.639098 
L 73.070886 47.639098 
L 69.218182 47.639098 
z
" style="fill:#bcbd22;"/>
   </g>
   <g id="PolyCollection_10">
    <path clip-path="url(#pa68664964c)" d="M 69.218182 47.639098 
L 69.218182 47.639098 
L 73.070886 47.639098 
L 76.92359 47.639098 
L 80.776295 47.639098 
L 84.628999 47.639098 
L 88.481703 47.639098 
L 92.334407 47.639098 
L 96.187112 47.639098 
L 100.039816 47.639098 
L 103.89252 47.639098 
L 107.745224 47.639098 
L 111.597929 47.639098 
L 115.450633 47.639098 
L 119.303337 47.639098 
L 123.156041 47.639098 
L 127.008746 47.639098 
L 130.86145 47.639098 
L 134.714154 47.639098 
L 138.566858 47.639098 
L 142.419563 47.639098 
L 146.272267 47.639098 
L 150.124971 47.639098 
L 153.977675 47.639098 
L 157.83038 47.639098 
L 161.683084 47.639098 
L 165.535788 47.639098 
L 169.388493 47.639098 
L 173.241197 47.639098 
L 177.093901 47.639098 
L 180.946605 47.639098 
L 184.79931 47.639098 
L 188.652014 47.639098 
L 192.504718 47.639098 
L 196.357422 47.639098 
L 200.210127 47.639098 
L 204.062831 47.639098 
L 207.915535 46.276692 
L 211.768239 47.639098 
L 215.620944 49.001504 
L 219.473648 47.639098 
L 223.326352 49.001504 
L 227.179056 47.639098 
L 231.031761 47.639098 
L 234.884465 46.276692 
L 238.737169 47.639098 
L 242.589873 47.639098 
L 246.442578 46.276692 
L 250.295282 44.914286 
L 254.147986 46.276692 
L 258.00069 50.36391 
L 261.853395 47.639098 
L 265.706099 49.001504 
L 269.558803 46.276692 
L 273.411507 47.639098 
L 277.264212 49.001504 
L 281.116916 46.276692 
L 284.96962 44.914286 
L 288.822325 47.639098 
L 292.675029 47.639098 
L 296.527733 47.639098 
L 300.380437 49.001504 
L 304.233142 49.001504 
L 308.085846 49.001504 
L 311.93855 47.639098 
L 315.791254 47.639098 
L 319.643959 74.887218 
L 323.496663 87.148872 
L 327.349367 76.249624 
L 331.202071 83.061654 
L 335.054776 78.974436 
L 338.90748 88.511278 
L 342.760184 92.598496 
L 346.612888 93.960902 
L 350.465593 99.410526 
L 354.318297 95.323308 
L 358.171001 106.222556 
L 362.023705 108.947368 
L 365.87641 108.947368 
L 369.729114 121.209023 
L 373.581818 108.947368 
L 373.581818 89.873684 
L 373.581818 89.873684 
L 369.729114 98.04812 
L 365.87641 91.23609 
L 362.023705 88.511278 
L 358.171001 83.061654 
L 354.318297 72.162406 
L 350.465593 73.524812 
L 346.612888 69.437594 
L 342.760184 69.437594 
L 338.90748 65.350376 
L 335.054776 61.263158 
L 331.202071 66.712782 
L 327.349367 62.625564 
L 323.496663 66.712782 
L 319.643959 58.538346 
L 315.791254 46.276692 
L 311.93855 47.639098 
L 308.085846 49.001504 
L 304.233142 49.001504 
L 300.380437 49.001504 
L 296.527733 47.639098 
L 292.675029 47.639098 
L 288.822325 47.639098 
L 284.96962 44.914286 
L 281.116916 46.276692 
L 277.264212 49.001504 
L 273.411507 47.639098 
L 269.558803 46.276692 
L 265.706099 49.001504 
L 261.853395 47.639098 
L 258.00069 50.36391 
L 254.147986 46.276692 
L 250.295282 44.914286 
L 246.442578 46.276692 
L 242.589873 47.639098 
L 238.737169 47.639098 
L 234.884465 46.276692 
L 231.031761 47.639098 
L 227.179056 47.639098 
L 223.326352 49.001504 
L 219.473648 47.639098 
L 215.620944 49.001504 
L 211.768239 47.639098 
L 207.915535 46.276692 
L 204.062831 47.639098 
L 200.210127 47.639098 
L 196.357422 47.639098 
L 192.504718 47.639098 
L 188.652014 47.639098 
L 184.79931 47.639098 
L 180.946605 47.639098 
L 177.093901 47.639098 
L 173.241197 47.639098 
L 169.388493 47.639098 
L 165.535788 47.639098 
L 161.683084 47.639098 
L 157.83038 47.639098 
L 153.977675 47.639098 
L 150.124971 47.639098 
L 146.272267 47.639098 
L 142.419563 47.639098 
L 138.566858 47.639098 
L 134.714154 47.639098 
L 130.86145 47.639098 
L 127.008746 47.639098 
L 123.156041 47.639098 
L 119.303337 47.639098 
L 115.450633 47.639098 
L 111.597929 47.639098 
L 107.745224 47.639098 
L 103.89252 47.639098 
L 100.039816 47.639098 
L 96.187112 47.639098 
L 92.334407 47.639098 
L 88.481703 47.639098 
L 84.628999 47.639098 
L 80.776295 47.639098 
L 76.92359 47.639098 
L 73.070886 47.639098 
L 69.218182 47.639098 
z
" style="fill:#17becf;"/>
   </g>
   <g id="PolyCollection_11">
    <path clip-path="url(#pa68664964c)" d="M 69.218182 47.639098 
L 69.218182 47.639098 
L 73.070886 47.639098 
L 76.92359 47.639098 
L 80.776295 47.639098 
L 84.628999 47.639098 
L 88.481703 47.639098 
L 92.334407 47.639098 
L 96.187112 47.639098 
L 100.039816 47.639098 
L 103.89252 47.639098 
L 107.745224 47.639098 
L 111.597929 47.639098 
L 115.450633 47.639098 
L 119.303337 47.639098 
L 123.156041 47.639098 
L 127.008746 47.639098 
L 130.86145 47.639098 
L 134.714154 47.639098 
L 138.566858 47.639098 
L 142.419563 47.639098 
L 146.272267 47.639098 
L 150.124971 47.639098 
L 153.977675 47.639098 
L 157.83038 47.639098 
L 161.683084 47.639098 
L 165.535788 47.639098 
L 169.388493 47.639098 
L 173.241197 47.639098 
L 177.093901 47.639098 
L 180.946605 47.639098 
L 184.79931 47.639098 
L 188.652014 47.639098 
L 192.504718 47.639098 
L 196.357422 47.639098 
L 200.210127 47.639098 
L 204.062831 47.639098 
L 207.915535 46.276692 
L 211.768239 47.639098 
L 215.620944 49.001504 
L 219.473648 47.639098 
L 223.326352 49.001504 
L 227.179056 47.639098 
L 231.031761 47.639098 
L 234.884465 46.276692 
L 238.737169 47.639098 
L 242.589873 47.639098 
L 246.442578 46.276692 
L 250.295282 44.914286 
L 254.147986 46.276692 
L 258.00069 50.36391 
L 261.853395 47.639098 
L 265.706099 49.001504 
L 269.558803 46.276692 
L 273.411507 47.639098 
L 277.264212 49.001504 
L 281.116916 46.276692 
L 284.96962 44.914286 
L 288.822325 47.639098 
L 292.675029 47.639098 
L 296.527733 47.639098 
L 300.380437 49.001504 
L 304.233142 49.001504 
L 308.085846 49.001504 
L 311.93855 47.639098 
L 315.791254 46.276692 
L 319.643959 58.538346 
L 323.496663 66.712782 
L 327.349367 62.625564 
L 331.202071 66.712782 
L 335.054776 61.263158 
L 338.90748 65.350376 
L 342.760184 69.437594 
L 346.612888 69.437594 
L 350.465593 73.524812 
L 354.318297 72.162406 
L 358.171001 83.061654 
L 362.023705 88.511278 
L 365.87641 91.23609 
L 369.729114 98.04812 
L 373.581818 89.873684 
L 373.581818 72.162406 
L 373.581818 72.162406 
L 369.729114 70.8 
L 365.87641 66.712782 
L 362.023705 65.350376 
L 358.171001 61.263158 
L 354.318297 51.726316 
L 350.465593 49.001504 
L 346.612888 47.639098 
L 342.760184 44.914286 
L 338.90748 46.276692 
L 335.054776 44.914286 
L 331.202071 47.639098 
L 327.349367 46.276692 
L 323.496663 49.001504 
L 319.643959 50.36391 
L 315.791254 46.276692 
L 311.93855 47.639098 
L 308.085846 49.001504 
L 304.233142 49.001504 
L 300.380437 49.001504 
L 296.527733 47.639098 
L 292.675029 47.639098 
L 288.822325 47.639098 
L 284.96962 44.914286 
L 281.116916 46.276692 
L 277.264212 49.001504 
L 273.411507 47.639098 
L 269.558803 46.276692 
L 265.706099 49.001504 
L 261.853395 47.639098 
L 258.00069 50.36391 
L 254.147986 46.276692 
L 250.295282 44.914286 
L 246.442578 46.276692 
L 242.589873 47.639098 
L 238.737169 47.639098 
L 234.884465 46.276692 
L 231.031761 47.639098 
L 227.179056 47.639098 
L 223.326352 49.001504 
L 219.473648 47.639098 
L 215.620944 49.001504 
L 211.768239 47.639098 
L 207.915535 46.276692 
L 204.062831 47.639098 
L 200.210127 47.639098 
L 196.357422 47.639098 
L 192.504718 47.639098 
L 188.652014 47.639098 
L 184.79931 47.639098 
L 180.946605 47.639098 
L 177.093901 47.639098 
L 173.241197 47.639098 
L 169.388493 47.639098 
L 165.535788 47.639098 
L 161.683084 47.639098 
L 157.83038 47.639098 
L 153.977675 47.639098 
L 150.124971 47.639098 
L 146.272267 47.639098 
L 142.419563 47.639098 
L 138.566858 47.639098 
L 134.714154 47.639098 
L 130.86145 47.639098 
L 127.008746 47.639098 
L 123.156041 47.639098 
L 119.303337 47.639098 
L 115.450633 47.639098 
L 111.597929 47.639098 
L 107.745224 47.639098 
L 103.89252 47.639098 
L 100.039816 47.639098 
L 96.187112 47.639098 
L 92.334407 47.639098 
L 88.481703 47.639098 
L 84.628999 47.639098 
L 80.776295 47.639098 
L 76.92359 47.639098 
L 73.070886 47.639098 
L 69.218182 47.639098 
z
" style="fill:#1f77b4;"/>
   </g>
   <g id="PolyCollection_12">
    <path clip-path="url(#pa68664964c)" d="M 69.218182 47.639098 
L 69.218182 47.639098 
L 73.070886 47.639098 
L 76.92359 47.639098 
L 80.776295 47.639098 
L 84.628999 47.639098 
L 88.481703 47.639098 
L 92.334407 47.639098 
L 96.187112 47.639098 
L 100.039816 47.639098 
L 103.89252 47.639098 
L 107.745224 47.639098 
L 111.597929 47.639098 
L 115.450633 47.639098 
L 119.303337 47.639098 
L 123.156041 47.639098 
L 127.008746 47.639098 
L 130.86145 47.639098 
L 134.714154 47.639098 
L 138.566858 47.639098 
L 142.419563 47.639098 
L 146.272267 47.639098 
L 150.124971 47.639098 
L 153.977675 47.639098 
L 157.83038 47.639098 
L 161.683084 47.639098 
L 165.535788 47.639098 
L 169.388493 47.639098 
L 173.241197 47.639098 
L 177.093901 47.639098 
L 180.946605 47.639098 
L 184.79931 47.639098 
L 188.652014 47.639098 
L 192.504718 47.639098 
L 196.357422 47.639098 
L 200.210127 47.639098 
L 204.062831 47.639098 
L 207.915535 46.276692 
L 211.768239 47.639098 
L 215.620944 49.001504 
L 219.473648 47.639098 
L 223.326352 49.001504 
L 227.179056 47.639098 
L 231.031761 47.639098 
L 234.884465 46.276692 
L 238.737169 47.639098 
L 242.589873 47.639098 
L 246.442578 46.276692 
L 250.295282 44.914286 
L 254.147986 46.276692 
L 258.00069 50.36391 
L 261.853395 47.639098 
L 265.706099 49.001504 
L 269.558803 46.276692 
L 273.411507 47.639098 
L 277.264212 49.001504 
L 281.116916 46.276692 
L 284.96962 44.914286 
L 288.822325 47.639098 
L 292.675029 47.639098 
L 296.527733 47.639098 
L 300.380437 49.001504 
L 304.233142 49.001504 
L 308.085846 49.001504 
L 311.93855 47.639098 
L 315.791254 46.276692 
L 319.643959 50.36391 
L 323.496663 49.001504 
L 327.349367 46.276692 
L 331.202071 47.639098 
L 335.054776 44.914286 
L 338.90748 46.276692 
L 342.760184 44.914286 
L 346.612888 47.639098 
L 350.465593 49.001504 
L 354.318297 51.726316 
L 358.171001 61.263158 
L 362.023705 65.350376 
L 365.87641 66.712782 
L 369.729114 70.8 
L 373.581818 72.162406 
L 373.581818 58.538346 
L 373.581818 58.538346 
L 369.729114 53.088722 
L 365.87641 50.36391 
L 362.023705 47.639098 
L 358.171001 49.001504 
L 354.318297 50.36391 
L 350.465593 49.001504 
L 346.612888 47.639098 
L 342.760184 44.914286 
L 338.90748 46.276692 
L 335.054776 44.914286 
L 331.202071 47.639098 
L 327.349367 46.276692 
L 323.496663 49.001504 
L 319.643959 50.36391 
L 315.791254 46.276692 
L 311.93855 47.639098 
L 308.085846 49.001504 
L 304.233142 49.001504 
L 300.380437 49.001504 
L 296.527733 47.639098 
L 292.675029 47.639098 
L 288.822325 47.639098 
L 284.96962 44.914286 
L 281.116916 46.276692 
L 277.264212 49.001504 
L 273.411507 47.639098 
L 269.558803 46.276692 
L 265.706099 49.001504 
L 261.853395 47.639098 
L 258.00069 50.36391 
L 254.147986 46.276692 
L 250.295282 44.914286 
L 246.442578 46.276692 
L 242.589873 47.639098 
L 238.737169 47.639098 
L 234.884465 46.276692 
L 231.031761 47.639098 
L 227.179056 47.639098 
L 223.326352 49.001504 
L 219.473648 47.639098 
L 215.620944 49.001504 
L 211.768239 47.639098 
L 207.915535 46.276692 
L 204.062831 47.639098 
L 200.210127 47.639098 
L 196.357422 47.639098 
L 192.504718 47.639098 
L 188.652014 47.639098 
L 184.79931 47.639098 
L 180.946605 47.639098 
L 177.093901 47.639098 
L 173.241197 47.639098 
L 169.388493 47.639098 
L 165.535788 47.639098 
L 161.683084 47.639098 
L 157.83038 47.639098 
L 153.977675 47.639098 
L 150.124971 47.639098 
L 146.272267 47.639098 
L 142.419563 47.639098 
L 138.566858 47.639098 
L 134.714154 47.639098 
L 130.86145 47.639098 
L 127.008746 47.639098 
L 123.156041 47.639098 
L 119.303337 47.639098 
L 115.450633 47.639098 
L 111.597929 47.639098 
L 107.745224 47.639098 
L 103.89252 47.639098 
L 100.039816 47.639098 
L 96.187112 47.639098 
L 92.334407 47.639098 
L 88.481703 47.639098 
L 84.628999 47.639098 
L 80.776295 47.639098 
L 76.92359 47.639098 
L 73.070886 47.639098 
L 69.218182 47.639098 
z
" style="fill:#ff7f0e;"/>
   </g>
   <g id="PolyCollection_13">
    <path clip-path="url(#pa68664964c)" d="M 69.218182 47.639098 
L 69.218182 47.639098 
L 73.070886 47.639098 
L 76.92359 47.639098 
L 80.776295 47.639098 
L 84.628999 47.639098 
L 88.481703 47.639098 
L 92.334407 47.639098 
L 96.187112 47.639098 
L 100.039816 47.639098 
L 103.89252 47.639098 
L 107.745224 47.639098 
L 111.597929 47.639098 
L 115.450633 47.639098 
L 119.303337 47.639098 
L 123.156041 47.639098 
L 127.008746 47.639098 
L 130.86145 47.639098 
L 134.714154 47.639098 
L 138.566858 47.639098 
L 142.419563 47.639098 
L 146.272267 47.639098 
L 150.124971 47.639098 
L 153.977675 47.639098 
L 157.83038 47.639098 
L 161.683084 47.639098 
L 165.535788 47.639098 
L 169.388493 47.639098 
L 173.241197 47.639098 
L 177.093901 47.639098 
L 180.946605 47.639098 
L 184.79931 47.639098 
L 188.652014 47.639098 
L 192.504718 47.639098 
L 196.357422 47.639098 
L 200.210127 47.639098 
L 204.062831 47.639098 
L 207.915535 46.276692 
L 211.768239 47.639098 
L 215.620944 49.001504 
L 219.473648 47.639098 
L 223.326352 49.001504 
L 227.179056 47.639098 
L 231.031761 47.639098 
L 234.884465 46.276692 
L 238.737169 47.639098 
L 242.589873 47.639098 
L 246.442578 46.276692 
L 250.295282 44.914286 
L 254.147986 46.276692 
L 258.00069 50.36391 
L 261.853395 47.639098 
L 265.706099 49.001504 
L 269.558803 46.276692 
L 273.411507 47.639098 
L 277.264212 49.001504 
L 281.116916 46.276692 
L 284.96962 44.914286 
L 288.822325 47.639098 
L 292.675029 47.639098 
L 296.527733 47.639098 
L 300.380437 49.001504 
L 304.233142 49.001504 
L 308.085846 49.001504 
L 311.93855 47.639098 
L 315.791254 46.276692 
L 319.643959 50.36391 
L 323.496663 49.001504 
L 327.349367 46.276692 
L 331.202071 47.639098 
L 335.054776 44.914286 
L 338.90748 46.276692 
L 342.760184 44.914286 
L 346.612888 47.639098 
L 350.465593 49.001504 
L 354.318297 50.36391 
L 358.171001 49.001504 
L 362.023705 47.639098 
L 365.87641 50.36391 
L 369.729114 53.088722 
L 373.581818 58.538346 
L 373.581818 47.639098 
L 373.581818 47.639098 
L 369.729114 47.639098 
L 365.87641 46.276692 
L 362.023705 47.639098 
L 358.171001 49.001504 
L 354.318297 50.36391 
L 350.465593 49.001504 
L 346.612888 47.639098 
L 342.760184 44.914286 
L 338.90748 46.276692 
L 335.054776 44.914286 
L 331.202071 47.639098 
L 327.349367 46.276692 
L 323.496663 49.001504 
L 319.643959 50.36391 
L 315.791254 46.276692 
L 311.93855 47.639098 
L 308.085846 49.001504 
L 304.233142 49.001504 
L 300.380437 49.001504 
L 296.527733 47.639098 
L 292.675029 47.639098 
L 288.822325 47.639098 
L 284.96962 44.914286 
L 281.116916 46.276692 
L 277.264212 49.001504 
L 273.411507 47.639098 
L 269.558803 46.276692 
L 265.706099 49.001504 
L 261.853395 47.639098 
L 258.00069 50.36391 
L 254.147986 46.276692 
L 250.295282 44.914286 
L 246.442578 46.276692 
L 242.589873 47.639098 
L 238.737169 47.639098 
L 234.884465 46.276692 
L 231.031761 47.639098 
L 227.179056 47.639098 
L 223.326352 49.001504 
L 219.473648 47.639098 
L 215.620944 49.001504 
L 211.768239 47.639098 
L 207.915535 46.276692 
L 204.062831 47.639098 
L 200.210127 47.639098 
L 196.357422 47.639098 
L 192.504718 47.639098 
L 188.652014 47.639098 
L 184.79931 47.639098 
L 180.946605 47.639098 
L 177.093901 47.639098 
L 173.241197 47.639098 
L 169.388493 47.639098 
L 165.535788 47.639098 
L 161.683084 47.639098 
L 157.83038 47.639098 
L 153.977675 47.639098 
L 150.124971 47.639098 
L 146.272267 47.639098 
L 142.419563 47.639098 
L 138.566858 47.639098 
L 134.714154 47.639098 
L 130.86145 47.639098 
L 127.008746 47.639098 
L 123.156041 47.639098 
L 119.303337 47.639098 
L 115.450633 47.639098 
L 111.597929 47.639098 
L 107.745224 47.639098 
L 103.89252 47.639098 
L 100.039816 47.639098 
L 96.187112 47.639098 
L 92.334407 47.639098 
L 88.481703 47.639098 
L 84.628999 47.639098 
L 80.776295 47.639098 
L 76.92359 47.639098 
L 73.070886 47.639098 
L 69.218182 47.639098 
z
" style="fill:#2ca02c;"/>
   </g>
   <g id="matplotlib.axis_1">
    <g id="xtick_1">
     <g id="line2d_1">
      <defs>
       <path d="M 0 0 
L 0 3.5 
" id="m7dc620b429" style="stroke:#000000;stroke-width:0.8;"/>
      </defs>
      <g>
       <use style="stroke:#000000;stroke-width:0.8;" x="69.218182" xlink:href="#m7dc620b429" y="252"/>
      </g>
     </g>
     <g id="text_1">
      <!-- 0 -->
      <defs>
       <path d="M 31.78125 66.40625 
Q 24.171875 66.40625 20.328125 58.90625 
Q 16.5 51.421875 16.5 36.375 
Q 16.5 21.390625 20.328125 13.890625 
Q 24.171875 6.390625 31.78125 6.390625 
Q 39.453125 6.390625 43.28125 13.890625 
Q 47.125 21.390625 47.125 36.375 
Q 47.125 51.421875 43.28125 58.90625 
Q 39.453125 66.40625 31.78125 66.40625 
z
M 31.78125 74.21875 
Q 44.046875 74.21875 50.515625 64.515625 
Q 56.984375 54.828125 56.984375 36.375 
Q 56.984375 17.96875 50.515625 8.265625 
Q 44.046875 -1.421875 31.78125 -1.421875 
Q 19.53125 -1.421875 13.0625 8.265625 
Q 6.59375 17.96875 6.59375 36.375 
Q 6.59375 54.828125 13.0625 64.515625 
Q 19.53125 74.21875 31.78125 74.21875 
z
" id="DejaVuSans-48"/>
      </defs>
      <g transform="translate(66.036932 266.598437)scale(0.1 -0.1)">
       <use xlink:href="#DejaVuSans-48"/>
      </g>
     </g>
    </g>
    <g id="xtick_2">
     <g id="line2d_2">
      <g>
       <use style="stroke:#000000;stroke-width:0.8;" x="107.745224" xlink:href="#m7dc620b429" y="252"/>
      </g>
     </g>
     <g id="text_2">
      <!-- 10 -->
      <defs>
       <path d="M 12.40625 8.296875 
L 28.515625 8.296875 
L 28.515625 63.921875 
L 10.984375 60.40625 
L 10.984375 69.390625 
L 28.421875 72.90625 
L 38.28125 72.90625 
L 38.28125 8.296875 
L 54.390625 8.296875 
L 54.390625 0 
L 12.40625 0 
z
" id="DejaVuSans-49"/>
      </defs>
      <g transform="translate(101.382724 266.598437)scale(0.1 -0.1)">
       <use xlink:href="#DejaVuSans-49"/>
       <use x="63.623047" xlink:href="#DejaVuSans-48"/>
      </g>
     </g>
    </g>
    <g id="xtick_3">
     <g id="line2d_3">
      <g>
       <use style="stroke:#000000;stroke-width:0.8;" x="146.272267" xlink:href="#m7dc620b429" y="252"/>
      </g>
     </g>
     <g id="text_3">
      <!-- 20 -->
      <defs>
       <path d="M 19.1875 8.296875 
L 53.609375 8.296875 
L 53.609375 0 
L 7.328125 0 
L 7.328125 8.296875 
Q 12.9375 14.109375 22.625 23.890625 
Q 32.328125 33.6875 34.8125 36.53125 
Q 39.546875 41.84375 41.421875 45.53125 
Q 43.3125 49.21875 43.3125 52.78125 
Q 43.3125 58.59375 39.234375 62.25 
Q 35.15625 65.921875 28.609375 65.921875 
Q 23.96875 65.921875 18.8125 64.3125 
Q 13.671875 62.703125 7.8125 59.421875 
L 7.8125 69.390625 
Q 13.765625 71.78125 18.9375 73 
Q 24.125 74.21875 28.421875 74.21875 
Q 39.75 74.21875 46.484375 68.546875 
Q 53.21875 62.890625 53.21875 53.421875 
Q 53.21875 48.921875 51.53125 44.890625 
Q 49.859375 40.875 45.40625 35.40625 
Q 44.1875 33.984375 37.640625 27.21875 
Q 31.109375 20.453125 19.1875 8.296875 
z
" id="DejaVuSans-50"/>
      </defs>
      <g transform="translate(139.909767 266.598437)scale(0.1 -0.1)">
       <use xlink:href="#DejaVuSans-50"/>
       <use x="63.623047" xlink:href="#DejaVuSans-48"/>
      </g>
     </g>
    </g>
    <g id="xtick_4">
     <g id="line2d_4">
      <g>
       <use style="stroke:#000000;stroke-width:0.8;" x="184.79931" xlink:href="#m7dc620b429" y="252"/>
      </g>
     </g>
     <g id="text_4">
      <!-- 30 -->
      <defs>
       <path d="M 40.578125 39.3125 
Q 47.65625 37.796875 51.625 33 
Q 55.609375 28.21875 55.609375 21.1875 
Q 55.609375 10.40625 48.1875 4.484375 
Q 40.765625 -1.421875 27.09375 -1.421875 
Q 22.515625 -1.421875 17.65625 -0.515625 
Q 12.796875 0.390625 7.625 2.203125 
L 7.625 11.71875 
Q 11.71875 9.328125 16.59375 8.109375 
Q 21.484375 6.890625 26.8125 6.890625 
Q 36.078125 6.890625 40.9375 10.546875 
Q 45.796875 14.203125 45.796875 21.1875 
Q 45.796875 27.640625 41.28125 31.265625 
Q 36.765625 34.90625 28.71875 34.90625 
L 20.21875 34.90625 
L 20.21875 43.015625 
L 29.109375 43.015625 
Q 36.375 43.015625 40.234375 45.921875 
Q 44.09375 48.828125 44.09375 54.296875 
Q 44.09375 59.90625 40.109375 62.90625 
Q 36.140625 65.921875 28.71875 65.921875 
Q 24.65625 65.921875 20.015625 65.03125 
Q 15.375 64.15625 9.8125 62.3125 
L 9.8125 71.09375 
Q 15.4375 72.65625 20.34375 73.4375 
Q 25.25 74.21875 29.59375 74.21875 
Q 40.828125 74.21875 47.359375 69.109375 
Q 53.90625 64.015625 53.90625 55.328125 
Q 53.90625 49.265625 50.4375 45.09375 
Q 46.96875 40.921875 40.578125 39.3125 
z
" id="DejaVuSans-51"/>
      </defs>
      <g transform="translate(178.43681 266.598437)scale(0.1 -0.1)">
       <use xlink:href="#DejaVuSans-51"/>
       <use x="63.623047" xlink:href="#DejaVuSans-48"/>
      </g>
     </g>
    </g>
    <g id="xtick_5">
     <g id="line2d_5">
      <g>
       <use style="stroke:#000000;stroke-width:0.8;" x="223.326352" xlink:href="#m7dc620b429" y="252"/>
      </g>
     </g>
     <g id="text_5">
      <!-- 40 -->
      <defs>
       <path d="M 37.796875 64.3125 
L 12.890625 25.390625 
L 37.796875 25.390625 
z
M 35.203125 72.90625 
L 47.609375 72.90625 
L 47.609375 25.390625 
L 58.015625 25.390625 
L 58.015625 17.1875 
L 47.609375 17.1875 
L 47.609375 0 
L 37.796875 0 
L 37.796875 17.1875 
L 4.890625 17.1875 
L 4.890625 26.703125 
z
" id="DejaVuSans-52"/>
      </defs>
      <g transform="translate(216.963852 266.598437)scale(0.1 -0.1)">
       <use xlink:href="#DejaVuSans-52"/>
       <use x="63.623047" xlink:href="#DejaVuSans-48"/>
      </g>
     </g>
    </g>
    <g id="xtick_6">
     <g id="line2d_6">
      <g>
       <use style="stroke:#000000;stroke-width:0.8;" x="261.853395" xlink:href="#m7dc620b429" y="252"/>
      </g>
     </g>
     <g id="text_6">
      <!-- 50 -->
      <defs>
       <path d="M 10.796875 72.90625 
L 49.515625 72.90625 
L 49.515625 64.59375 
L 19.828125 64.59375 
L 19.828125 46.734375 
Q 21.96875 47.46875 24.109375 47.828125 
Q 26.265625 48.1875 28.421875 48.1875 
Q 40.625 48.1875 47.75 41.5 
Q 54.890625 34.8125 54.890625 23.390625 
Q 54.890625 11.625 47.5625 5.09375 
Q 40.234375 -1.421875 26.90625 -1.421875 
Q 22.3125 -1.421875 17.546875 -0.640625 
Q 12.796875 0.140625 7.71875 1.703125 
L 7.71875 11.625 
Q 12.109375 9.234375 16.796875 8.0625 
Q 21.484375 6.890625 26.703125 6.890625 
Q 35.15625 6.890625 40.078125 11.328125 
Q 45.015625 15.765625 45.015625 23.390625 
Q 45.015625 31 40.078125 35.4375 
Q 35.15625 39.890625 26.703125 39.890625 
Q 22.75 39.890625 18.8125 39.015625 
Q 14.890625 38.140625 10.796875 36.28125 
z
" id="DejaVuSans-53"/>
      </defs>
      <g transform="translate(255.490895 266.598437)scale(0.1 -0.1)">
       <use xlink:href="#DejaVuSans-53"/>
       <use x="63.623047" xlink:href="#DejaVuSans-48"/>
      </g>
     </g>
    </g>
    <g id="xtick_7">
     <g id="line2d_7">
      <g>
       <use style="stroke:#000000;stroke-width:0.8;" x="300.380437" xlink:href="#m7dc620b429" y="252"/>
      </g>
     </g>
     <g id="text_7">
      <!-- 60 -->
      <defs>
       <path d="M 33.015625 40.375 
Q 26.375 40.375 22.484375 35.828125 
Q 18.609375 31.296875 18.609375 23.390625 
Q 18.609375 15.53125 22.484375 10.953125 
Q 26.375 6.390625 33.015625 6.390625 
Q 39.65625 6.390625 43.53125 10.953125 
Q 47.40625 15.53125 47.40625 23.390625 
Q 47.40625 31.296875 43.53125 35.828125 
Q 39.65625 40.375 33.015625 40.375 
z
M 52.59375 71.296875 
L 52.59375 62.3125 
Q 48.875 64.0625 45.09375 64.984375 
Q 41.3125 65.921875 37.59375 65.921875 
Q 27.828125 65.921875 22.671875 59.328125 
Q 17.53125 52.734375 16.796875 39.40625 
Q 19.671875 43.65625 24.015625 45.921875 
Q 28.375 48.1875 33.59375 48.1875 
Q 44.578125 48.1875 50.953125 41.515625 
Q 57.328125 34.859375 57.328125 23.390625 
Q 57.328125 12.15625 50.6875 5.359375 
Q 44.046875 -1.421875 33.015625 -1.421875 
Q 20.359375 -1.421875 13.671875 8.265625 
Q 6.984375 17.96875 6.984375 36.375 
Q 6.984375 53.65625 15.1875 63.9375 
Q 23.390625 74.21875 37.203125 74.21875 
Q 40.921875 74.21875 44.703125 73.484375 
Q 48.484375 72.75 52.59375 71.296875 
z
" id="DejaVuSans-54"/>
      </defs>
      <g transform="translate(294.017937 266.598437)scale(0.1 -0.1)">
       <use xlink:href="#DejaVuSans-54"/>
       <use x="63.623047" xlink:href="#DejaVuSans-48"/>
      </g>
     </g>
    </g>
    <g id="xtick_8">
     <g id="line2d_8">
      <g>
       <use style="stroke:#000000;stroke-width:0.8;" x="338.90748" xlink:href="#m7dc620b429" y="252"/>
      </g>
     </g>
     <g id="text_8">
      <!-- 70 -->
      <defs>
       <path d="M 8.203125 72.90625 
L 55.078125 72.90625 
L 55.078125 68.703125 
L 28.609375 0 
L 18.3125 0 
L 43.21875 64.59375 
L 8.203125 64.59375 
z
" id="DejaVuSans-55"/>
      </defs>
      <g transform="translate(332.54498 266.598437)scale(0.1 -0.1)">
       <use xlink:href="#DejaVuSans-55"/>
       <use x="63.623047" xlink:href="#DejaVuSans-48"/>
      </g>
     </g>
    </g>
    <g id="xtick_9">
     <g id="line2d_9">
      <g>
       <use style="stroke:#000000;stroke-width:0.8;" x="377.434522" xlink:href="#m7dc620b429" y="252"/>
      </g>
     </g>
     <g id="text_9">
      <!-- 80 -->
      <defs>
       <path d="M 31.78125 34.625 
Q 24.75 34.625 20.71875 30.859375 
Q 16.703125 27.09375 16.703125 20.515625 
Q 16.703125 13.921875 20.71875 10.15625 
Q 24.75 6.390625 31.78125 6.390625 
Q 38.8125 6.390625 42.859375 10.171875 
Q 46.921875 13.96875 46.921875 20.515625 
Q 46.921875 27.09375 42.890625 30.859375 
Q 38.875 34.625 31.78125 34.625 
z
M 21.921875 38.8125 
Q 15.578125 40.375 12.03125 44.71875 
Q 8.5 49.078125 8.5 55.328125 
Q 8.5 64.0625 14.71875 69.140625 
Q 20.953125 74.21875 31.78125 74.21875 
Q 42.671875 74.21875 48.875 69.140625 
Q 55.078125 64.0625 55.078125 55.328125 
Q 55.078125 49.078125 51.53125 44.71875 
Q 48 40.375 41.703125 38.8125 
Q 48.828125 37.15625 52.796875 32.3125 
Q 56.78125 27.484375 56.78125 20.515625 
Q 56.78125 9.90625 50.3125 4.234375 
Q 43.84375 -1.421875 31.78125 -1.421875 
Q 19.734375 -1.421875 13.25 4.234375 
Q 6.78125 9.90625 6.78125 20.515625 
Q 6.78125 27.484375 10.78125 32.3125 
Q 14.796875 37.15625 21.921875 38.8125 
z
M 18.3125 54.390625 
Q 18.3125 48.734375 21.84375 45.5625 
Q 25.390625 42.390625 31.78125 42.390625 
Q 38.140625 42.390625 41.71875 45.5625 
Q 45.3125 48.734375 45.3125 54.390625 
Q 45.3125 60.0625 41.71875 63.234375 
Q 38.140625 66.40625 31.78125 66.40625 
Q 25.390625 66.40625 21.84375 63.234375 
Q 18.3125 60.0625 18.3125 54.390625 
z
" id="DejaVuSans-56"/>
      </defs>
      <g transform="translate(371.072022 266.598437)scale(0.1 -0.1)">
       <use xlink:href="#DejaVuSans-56"/>
       <use x="63.623047" xlink:href="#DejaVuSans-48"/>
      </g>
     </g>
    </g>
    <g id="text_10">
     <!-- Generations -->
     <defs>
      <path d="M 59.515625 10.40625 
L 59.515625 29.984375 
L 43.40625 29.984375 
L 43.40625 38.09375 
L 69.28125 38.09375 
L 69.28125 6.78125 
Q 63.578125 2.734375 56.6875 0.65625 
Q 49.8125 -1.421875 42 -1.421875 
Q 24.90625 -1.421875 15.25 8.5625 
Q 5.609375 18.5625 5.609375 36.375 
Q 5.609375 54.25 15.25 64.234375 
Q 24.90625 74.21875 42 74.21875 
Q 49.125 74.21875 55.546875 72.453125 
Q 61.96875 70.703125 67.390625 67.28125 
L 67.390625 56.78125 
Q 61.921875 61.421875 55.765625 63.765625 
Q 49.609375 66.109375 42.828125 66.109375 
Q 29.4375 66.109375 22.71875 58.640625 
Q 16.015625 51.171875 16.015625 36.375 
Q 16.015625 21.625 22.71875 14.15625 
Q 29.4375 6.6875 42.828125 6.6875 
Q 48.046875 6.6875 52.140625 7.59375 
Q 56.25 8.5 59.515625 10.40625 
z
" id="DejaVuSans-71"/>
      <path d="M 56.203125 29.59375 
L 56.203125 25.203125 
L 14.890625 25.203125 
Q 15.484375 15.921875 20.484375 11.0625 
Q 25.484375 6.203125 34.421875 6.203125 
Q 39.59375 6.203125 44.453125 7.46875 
Q 49.3125 8.734375 54.109375 11.28125 
L 54.109375 2.78125 
Q 49.265625 0.734375 44.1875 -0.34375 
Q 39.109375 -1.421875 33.890625 -1.421875 
Q 20.796875 -1.421875 13.15625 6.1875 
Q 5.515625 13.8125 5.515625 26.8125 
Q 5.515625 40.234375 12.765625 48.109375 
Q 20.015625 56 32.328125 56 
Q 43.359375 56 49.78125 48.890625 
Q 56.203125 41.796875 56.203125 29.59375 
z
M 47.21875 32.234375 
Q 47.125 39.59375 43.09375 43.984375 
Q 39.0625 48.390625 32.421875 48.390625 
Q 24.90625 48.390625 20.390625 44.140625 
Q 15.875 39.890625 15.1875 32.171875 
z
" id="DejaVuSans-101"/>
      <path d="M 54.890625 33.015625 
L 54.890625 0 
L 45.90625 0 
L 45.90625 32.71875 
Q 45.90625 40.484375 42.875 44.328125 
Q 39.84375 48.1875 33.796875 48.1875 
Q 26.515625 48.1875 22.3125 43.546875 
Q 18.109375 38.921875 18.109375 30.90625 
L 18.109375 0 
L 9.078125 0 
L 9.078125 54.6875 
L 18.109375 54.6875 
L 18.109375 46.1875 
Q 21.34375 51.125 25.703125 53.5625 
Q 30.078125 56 35.796875 56 
Q 45.21875 56 50.046875 50.171875 
Q 54.890625 44.34375 54.890625 33.015625 
z
" id="DejaVuSans-110"/>
      <path d="M 41.109375 46.296875 
Q 39.59375 47.171875 37.8125 47.578125 
Q 36.03125 48 33.890625 48 
Q 26.265625 48 22.1875 43.046875 
Q 18.109375 38.09375 18.109375 28.8125 
L 18.109375 0 
L 9.078125 0 
L 9.078125 54.6875 
L 18.109375 54.6875 
L 18.109375 46.1875 
Q 20.953125 51.171875 25.484375 53.578125 
Q 30.03125 56 36.53125 56 
Q 37.453125 56 38.578125 55.875 
Q 39.703125 55.765625 41.0625 55.515625 
z
" id="DejaVuSans-114"/>
      <path d="M 34.28125 27.484375 
Q 23.390625 27.484375 19.1875 25 
Q 14.984375 22.515625 14.984375 16.5 
Q 14.984375 11.71875 18.140625 8.90625 
Q 21.296875 6.109375 26.703125 6.109375 
Q 34.1875 6.109375 38.703125 11.40625 
Q 43.21875 16.703125 43.21875 25.484375 
L 43.21875 27.484375 
z
M 52.203125 31.203125 
L 52.203125 0 
L 43.21875 0 
L 43.21875 8.296875 
Q 40.140625 3.328125 35.546875 0.953125 
Q 30.953125 -1.421875 24.3125 -1.421875 
Q 15.921875 -1.421875 10.953125 3.296875 
Q 6 8.015625 6 15.921875 
Q 6 25.140625 12.171875 29.828125 
Q 18.359375 34.515625 30.609375 34.515625 
L 43.21875 34.515625 
L 43.21875 35.40625 
Q 43.21875 41.609375 39.140625 45 
Q 35.0625 48.390625 27.6875 48.390625 
Q 23 48.390625 18.546875 47.265625 
Q 14.109375 46.140625 10.015625 43.890625 
L 10.015625 52.203125 
Q 14.9375 54.109375 19.578125 55.046875 
Q 24.21875 56 28.609375 56 
Q 40.484375 56 46.34375 49.84375 
Q 52.203125 43.703125 52.203125 31.203125 
z
" id="DejaVuSans-97"/>
      <path d="M 18.3125 70.21875 
L 18.3125 54.6875 
L 36.8125 54.6875 
L 36.8125 47.703125 
L 18.3125 47.703125 
L 18.3125 18.015625 
Q 18.3125 11.328125 20.140625 9.421875 
Q 21.96875 7.515625 27.59375 7.515625 
L 36.8125 7.515625 
L 36.8125 0 
L 27.59375 0 
Q 17.1875 0 13.234375 3.875 
Q 9.28125 7.765625 9.28125 18.015625 
L 9.28125 47.703125 
L 2.6875 47.703125 
L 2.6875 54.6875 
L 9.28125 54.6875 
L 9.28125 70.21875 
z
" id="DejaVuSans-116"/>
      <path d="M 9.421875 54.6875 
L 18.40625 54.6875 
L 18.40625 0 
L 9.421875 0 
z
M 9.421875 75.984375 
L 18.40625 75.984375 
L 18.40625 64.59375 
L 9.421875 64.59375 
z
" id="DejaVuSans-105"/>
      <path d="M 30.609375 48.390625 
Q 23.390625 48.390625 19.1875 42.75 
Q 14.984375 37.109375 14.984375 27.296875 
Q 14.984375 17.484375 19.15625 11.84375 
Q 23.34375 6.203125 30.609375 6.203125 
Q 37.796875 6.203125 41.984375 11.859375 
Q 46.1875 17.53125 46.1875 27.296875 
Q 46.1875 37.015625 41.984375 42.703125 
Q 37.796875 48.390625 30.609375 48.390625 
z
M 30.609375 56 
Q 42.328125 56 49.015625 48.375 
Q 55.71875 40.765625 55.71875 27.296875 
Q 55.71875 13.875 49.015625 6.21875 
Q 42.328125 -1.421875 30.609375 -1.421875 
Q 18.84375 -1.421875 12.171875 6.21875 
Q 5.515625 13.875 5.515625 27.296875 
Q 5.515625 40.765625 12.171875 48.375 
Q 18.84375 56 30.609375 56 
z
" id="DejaVuSans-111"/>
      <path d="M 44.28125 53.078125 
L 44.28125 44.578125 
Q 40.484375 46.53125 36.375 47.5 
Q 32.28125 48.484375 27.875 48.484375 
Q 21.1875 48.484375 17.84375 46.4375 
Q 14.5 44.390625 14.5 40.28125 
Q 14.5 37.15625 16.890625 35.375 
Q 19.28125 33.59375 26.515625 31.984375 
L 29.59375 31.296875 
Q 39.15625 29.25 43.1875 25.515625 
Q 47.21875 21.78125 47.21875 15.09375 
Q 47.21875 7.46875 41.1875 3.015625 
Q 35.15625 -1.421875 24.609375 -1.421875 
Q 20.21875 -1.421875 15.453125 -0.5625 
Q 10.6875 0.296875 5.421875 2 
L 5.421875 11.28125 
Q 10.40625 8.6875 15.234375 7.390625 
Q 20.0625 6.109375 24.8125 6.109375 
Q 31.15625 6.109375 34.5625 8.28125 
Q 37.984375 10.453125 37.984375 14.40625 
Q 37.984375 18.0625 35.515625 20.015625 
Q 33.0625 21.96875 24.703125 23.78125 
L 21.578125 24.515625 
Q 13.234375 26.265625 9.515625 29.90625 
Q 5.8125 33.546875 5.8125 39.890625 
Q 5.8125 47.609375 11.28125 51.796875 
Q 16.75 56 26.8125 56 
Q 31.78125 56 36.171875 55.265625 
Q 40.578125 54.546875 44.28125 53.078125 
z
" id="DejaVuSans-115"/>
     </defs>
     <g transform="translate(190.902344 280.276563)scale(0.1 -0.1)">
      <use xlink:href="#DejaVuSans-71"/>
      <use x="77.490234" xlink:href="#DejaVuSans-101"/>
      <use x="139.013672" xlink:href="#DejaVuSans-110"/>
      <use x="202.392578" xlink:href="#DejaVuSans-101"/>
      <use x="263.916016" xlink:href="#DejaVuSans-114"/>
      <use x="305.029297" xlink:href="#DejaVuSans-97"/>
      <use x="366.308594" xlink:href="#DejaVuSans-116"/>
      <use x="405.517578" xlink:href="#DejaVuSans-105"/>
      <use x="433.300781" xlink:href="#DejaVuSans-111"/>
      <use x="494.482422" xlink:href="#DejaVuSans-110"/>
      <use x="557.861328" xlink:href="#DejaVuSans-115"/>
     </g>
    </g>
   </g>
   <g id="matplotlib.axis_2">
    <g id="ytick_1">
     <g id="line2d_10">
      <defs>
       <path d="M 0 0 
L -3.5 0 
" id="m8def31c561" style="stroke:#000000;stroke-width:0.8;"/>
      </defs>
      <g>
       <use style="stroke:#000000;stroke-width:0.8;" x="54" xlink:href="#m8def31c561" y="252"/>
      </g>
     </g>
     <g id="text_11">
      <!-- 0 -->
      <g transform="translate(40.6375 255.799219)scale(0.1 -0.1)">
       <use xlink:href="#DejaVuSans-48"/>
      </g>
     </g>
    </g>
    <g id="ytick_2">
     <g id="line2d_11">
      <g>
       <use style="stroke:#000000;stroke-width:0.8;" x="54" xlink:href="#m8def31c561" y="224.75188"/>
      </g>
     </g>
     <g id="text_12">
      <!-- 20 -->
      <g transform="translate(34.275 228.551098)scale(0.1 -0.1)">
       <use xlink:href="#DejaVuSans-50"/>
       <use x="63.623047" xlink:href="#DejaVuSans-48"/>
      </g>
     </g>
    </g>
    <g id="ytick_3">
     <g id="line2d_12">
      <g>
       <use style="stroke:#000000;stroke-width:0.8;" x="54" xlink:href="#m8def31c561" y="197.503759"/>
      </g>
     </g>
     <g id="text_13">
      <!-- 40 -->
      <g transform="translate(34.275 201.302978)scale(0.1 -0.1)">
       <use xlink:href="#DejaVuSans-52"/>
       <use x="63.623047" xlink:href="#DejaVuSans-48"/>
      </g>
     </g>
    </g>
    <g id="ytick_4">
     <g id="line2d_13">
      <g>
       <use style="stroke:#000000;stroke-width:0.8;" x="54" xlink:href="#m8def31c561" y="170.255639"/>
      </g>
     </g>
     <g id="text_14">
      <!-- 60 -->
      <g transform="translate(34.275 174.054858)scale(0.1 -0.1)">
       <use xlink:href="#DejaVuSans-54"/>
       <use x="63.623047" xlink:href="#DejaVuSans-48"/>
      </g>
     </g>
    </g>
    <g id="ytick_5">
     <g id="line2d_14">
      <g>
       <use style="stroke:#000000;stroke-width:0.8;" x="54" xlink:href="#m8def31c561" y="143.007519"/>
      </g>
     </g>
     <g id="text_15">
      <!-- 80 -->
      <g transform="translate(34.275 146.806738)scale(0.1 -0.1)">
       <use xlink:href="#DejaVuSans-56"/>
       <use x="63.623047" xlink:href="#DejaVuSans-48"/>
      </g>
     </g>
    </g>
    <g id="ytick_6">
     <g id="line2d_15">
      <g>
       <use style="stroke:#000000;stroke-width:0.8;" x="54" xlink:href="#m8def31c561" y="115.759398"/>
      </g>
     </g>
     <g id="text_16">
      <!-- 100 -->
      <g transform="translate(27.9125 119.558617)scale(0.1 -0.1)">
       <use xlink:href="#DejaVuSans-49"/>
       <use x="63.623047" xlink:href="#DejaVuSans-48"/>
       <use x="127.246094" xlink:href="#DejaVuSans-48"/>
      </g>
     </g>
    </g>
    <g id="ytick_7">
     <g id="line2d_16">
      <g>
       <use style="stroke:#000000;stroke-width:0.8;" x="54" xlink:href="#m8def31c561" y="88.511278"/>
      </g>
     </g>
     <g id="text_17">
      <!-- 120 -->
      <g transform="translate(27.9125 92.310497)scale(0.1 -0.1)">
       <use xlink:href="#DejaVuSans-49"/>
       <use x="63.623047" xlink:href="#DejaVuSans-50"/>
       <use x="127.246094" xlink:href="#DejaVuSans-48"/>
      </g>
     </g>
    </g>
    <g id="ytick_8">
     <g id="line2d_17">
      <g>
       <use style="stroke:#000000;stroke-width:0.8;" x="54" xlink:href="#m8def31c561" y="61.263158"/>
      </g>
     </g>
     <g id="text_18">
      <!-- 140 -->
      <g transform="translate(27.9125 65.062377)scale(0.1 -0.1)">
       <use xlink:href="#DejaVuSans-49"/>
       <use x="63.623047" xlink:href="#DejaVuSans-52"/>
       <use x="127.246094" xlink:href="#DejaVuSans-48"/>
      </g>
     </g>
    </g>
    <g id="text_19">
     <!-- Size per Species -->
     <defs>
      <path d="M 53.515625 70.515625 
L 53.515625 60.890625 
Q 47.90625 63.578125 42.921875 64.890625 
Q 37.9375 66.21875 33.296875 66.21875 
Q 25.25 66.21875 20.875 63.09375 
Q 16.5 59.96875 16.5 54.203125 
Q 16.5 49.359375 19.40625 46.890625 
Q 22.3125 44.4375 30.421875 42.921875 
L 36.375 41.703125 
Q 47.40625 39.59375 52.65625 34.296875 
Q 57.90625 29 57.90625 20.125 
Q 57.90625 9.515625 50.796875 4.046875 
Q 43.703125 -1.421875 29.984375 -1.421875 
Q 24.8125 -1.421875 18.96875 -0.25 
Q 13.140625 0.921875 6.890625 3.21875 
L 6.890625 13.375 
Q 12.890625 10.015625 18.65625 8.296875 
Q 24.421875 6.59375 29.984375 6.59375 
Q 38.421875 6.59375 43.015625 9.90625 
Q 47.609375 13.234375 47.609375 19.390625 
Q 47.609375 24.75 44.3125 27.78125 
Q 41.015625 30.8125 33.5 32.328125 
L 27.484375 33.5 
Q 16.453125 35.6875 11.515625 40.375 
Q 6.59375 45.0625 6.59375 53.421875 
Q 6.59375 63.09375 13.40625 68.65625 
Q 20.21875 74.21875 32.171875 74.21875 
Q 37.3125 74.21875 42.625 73.28125 
Q 47.953125 72.359375 53.515625 70.515625 
z
" id="DejaVuSans-83"/>
      <path d="M 5.515625 54.6875 
L 48.1875 54.6875 
L 48.1875 46.484375 
L 14.40625 7.171875 
L 48.1875 7.171875 
L 48.1875 0 
L 4.296875 0 
L 4.296875 8.203125 
L 38.09375 47.515625 
L 5.515625 47.515625 
z
" id="DejaVuSans-122"/>
      <path id="DejaVuSans-32"/>
      <path d="M 18.109375 8.203125 
L 18.109375 -20.796875 
L 9.078125 -20.796875 
L 9.078125 54.6875 
L 18.109375 54.6875 
L 18.109375 46.390625 
Q 20.953125 51.265625 25.265625 53.625 
Q 29.59375 56 35.59375 56 
Q 45.5625 56 51.78125 48.09375 
Q 58.015625 40.1875 58.015625 27.296875 
Q 58.015625 14.40625 51.78125 6.484375 
Q 45.5625 -1.421875 35.59375 -1.421875 
Q 29.59375 -1.421875 25.265625 0.953125 
Q 20.953125 3.328125 18.109375 8.203125 
z
M 48.6875 27.296875 
Q 48.6875 37.203125 44.609375 42.84375 
Q 40.53125 48.484375 33.40625 48.484375 
Q 26.265625 48.484375 22.1875 42.84375 
Q 18.109375 37.203125 18.109375 27.296875 
Q 18.109375 17.390625 22.1875 11.75 
Q 26.265625 6.109375 33.40625 6.109375 
Q 40.53125 6.109375 44.609375 11.75 
Q 48.6875 17.390625 48.6875 27.296875 
z
" id="DejaVuSans-112"/>
      <path d="M 48.78125 52.59375 
L 48.78125 44.1875 
Q 44.96875 46.296875 41.140625 47.34375 
Q 37.3125 48.390625 33.40625 48.390625 
Q 24.65625 48.390625 19.8125 42.84375 
Q 14.984375 37.3125 14.984375 27.296875 
Q 14.984375 17.28125 19.8125 11.734375 
Q 24.65625 6.203125 33.40625 6.203125 
Q 37.3125 6.203125 41.140625 7.25 
Q 44.96875 8.296875 48.78125 10.40625 
L 48.78125 2.09375 
Q 45.015625 0.34375 40.984375 -0.53125 
Q 36.96875 -1.421875 32.421875 -1.421875 
Q 20.0625 -1.421875 12.78125 6.34375 
Q 5.515625 14.109375 5.515625 27.296875 
Q 5.515625 40.671875 12.859375 48.328125 
Q 20.21875 56 33.015625 56 
Q 37.15625 56 41.109375 55.140625 
Q 45.0625 54.296875 48.78125 52.59375 
z
" id="DejaVuSans-99"/>
     </defs>
     <g transform="translate(21.832812 184.272969)rotate(-90)scale(0.1 -0.1)">
      <use xlink:href="#DejaVuSans-83"/>
      <use x="63.476562" xlink:href="#DejaVuSans-105"/>
      <use x="91.259766" xlink:href="#DejaVuSans-122"/>
      <use x="143.75" xlink:href="#DejaVuSans-101"/>
      <use x="205.273438" xlink:href="#DejaVuSans-32"/>
      <use x="237.060547" xlink:href="#DejaVuSans-112"/>
      <use x="300.537109" xlink:href="#DejaVuSans-101"/>
      <use x="362.060547" xlink:href="#DejaVuSans-114"/>
      <use x="403.173828" xlink:href="#DejaVuSans-32"/>
      <use x="434.960938" xlink:href="#DejaVuSans-83"/>
      <use x="498.4375" xlink:href="#DejaVuSans-112"/>
      <use x="561.914062" xlink:href="#DejaVuSans-101"/>
      <use x="623.4375" xlink:href="#DejaVuSans-99"/>
      <use x="678.417969" xlink:href="#DejaVuSans-105"/>
      <use x="706.201172" xlink:href="#DejaVuSans-101"/>
      <use x="767.724609" xlink:href="#DejaVuSans-115"/>
     </g>
    </g>
   </g>
   <g id="patch_3">
    <path d="M 54 252 
L 54 34.56 
" style="fill:none;stroke:#000000;stroke-linecap:square;stroke-linejoin:miter;stroke-width:0.8;"/>
   </g>
   <g id="patch_4">
    <path d="M 388.8 252 
L 388.8 34.56 
" style="fill:none;stroke:#000000;stroke-linecap:square;stroke-linejoin:miter;stroke-width:0.8;"/>
   </g>
   <g id="patch_5">
    <path d="M 54 252 
L 388.8 252 
" style="fill:none;stroke:#000000;stroke-linecap:square;stroke-linejoin:miter;stroke-width:0.8;"/>
   </g>
   <g id="patch_6">
    <path d="M 54 34.56 
L 388.8 34.56 
" style="fill:none;stroke:#000000;stroke-linecap:square;stroke-linejoin:miter;stroke-width:0.8;"/>
   </g>
   <g id="text_20">
    <!-- Speciation -->
    <g transform="translate(189.954375 28.56)scale(0.12 -0.12)">
     <use xlink:href="#DejaVuSans-83"/>
     <use x="63.476562" xlink:href="#DejaVuSans-112"/>
     <use x="126.953125" xlink:href="#DejaVuSans-101"/>
     <use x="188.476562" xlink:href="#DejaVuSans-99"/>
     <use x="243.457031" xlink:href="#DejaVuSans-105"/>
     <use x="271.240234" xlink:href="#DejaVuSans-97"/>
     <use x="332.519531" xlink:href="#DejaVuSans-116"/>
     <use x="371.728516" xlink:href="#DejaVuSans-105"/>
     <use x="399.511719" xlink:href="#DejaVuSans-111"/>
     <use x="460.693359" xlink:href="#DejaVuSans-110"/>
    </g>
   </g>
  </g>
 </g>
 <defs>
  <clipPath id="pa68664964c">
   <rect height="217.44" width="334.8" x="54" y="34.56"/>
  </clipPath>
 </defs>
</svg>
